<svg
  xmlns="http://www.w3.org/2000/svg"
  version="1.1"
  viewBox="0.00 0.00 714.00 132.00"
  width="714.00"
  height="132.00"
>
  <g stroke-width="2.00" fill="none" stroke-linecap="butt">
    <path
      stroke="#808080"
      d="&#10;  M 670.74 0.00&#10;  Q 669.03 1.02 668.40 2.98&#10;  A 1.24 1.21 -51.9 0 0 668.51 3.98&#10;  L 670.73 7.82&#10;  A 2.48 2.46 45.2 0 1 670.73 10.27&#10;  L 664.52 21.02&#10;  A 1.58 1.56 2.8 0 1 663.77 21.69&#10;  Q 661.65 22.62 658.95 21.71&#10;  A 1.53 1.49 79.3 0 1 658.25 21.22&#10;  Q 656.34 18.88 652.80 19.09&#10;  A 1.79 1.79 0.0 0 1 651.21 18.30&#10;  C 649.26 15.40 647.39 13.08 645.90 10.33&#10;  C 644.86 8.41 640.99 6.02 639.14 8.73&#10;  Q 638.60 9.53 639.92 11.37&#10;  Q 640.69 12.45 641.27 15.49&#10;  A 2.05 2.01 -70.9 0 0 641.69 16.38&#10;  Q 645.63 21.15 644.45 26.46&#10;  A 4.29 4.19 -44.3 0 0 644.41 28.14&#10;  Q 644.88 30.92 645.07 37.14&#10;  Q 645.11 38.44 646.83 41.61&#10;  A 0.73 0.73 0.0 0 1 646.64 42.53&#10;  C 640.13 47.80 639.50 43.98 636.87 38.71&#10;  A 1.18 1.17 -12.1 0 0 635.87 38.07&#10;  L 632.49 37.91&#10;  A 1.19 1.19 0.0 0 0 631.24 39.04&#10;  L 630.55 53.67&#10;  A 0.46 0.45 -61.1 0 0 630.63 53.96&#10;  Q 630.93 54.43 632.92 57.41&#10;  Q 634.62 59.96 636.50 59.87&#10;  Q 639.02 59.73 640.00 57.43&#10;  Q 643.41 49.35 648.86 44.54&#10;  C 650.92 42.72 652.21 41.07 654.69 41.64&#10;  C 659.46 42.73 657.43 46.02 655.18 48.37&#10;  A 0.31 0.31 0.0 0 0 655.25 48.86&#10;  L 655.55 49.04&#10;  A 0.81 0.81 0.0 0 0 656.51 48.93&#10;  C 659.72 45.96 661.94 41.65 666.79 43.24&#10;  Q 671.72 44.86 674.43 46.27&#10;  A 1.04 1.04 0.0 0 1 674.99 47.19&#10;  C 675.01 50.87 670.75 51.10 667.58 51.37&#10;  A 0.89 0.89 0.0 0 0 666.88 51.82&#10;  Q 666.60 52.32 666.21 52.23&#10;  Q 665.68 52.09 665.20 52.25&#10;  Q 661.57 53.41 648.68 57.39&#10;  A 18.20 17.95 21.4 0 0 645.22 58.87&#10;  L 629.64 67.59&#10;  A 8.76 8.69 4.9 0 0 627.17 69.65&#10;  C 625.04 72.14 620.83 76.64 616.98 79.41&#10;  C 614.26 81.37 609.99 85.46 611.08 89.04&#10;  A 1.43 1.42 -84.4 0 0 611.77 89.89&#10;  Q 615.86 92.10 618.05 95.35&#10;  A 1.69 1.69 0.0 0 0 620.32 95.85&#10;  C 623.55 93.94 625.06 90.16 627.44 87.83&#10;  C 629.66 85.66 631.94 81.40 634.33 80.31&#10;  Q 638.65 78.34 646.45 74.29&#10;  C 652.18 71.31 658.94 68.97 663.39 67.52&#10;  A 11.09 10.82 20.0 0 0 665.63 66.51&#10;  Q 672.30 62.53 678.97 60.67&#10;  A 5.13 5.10 18.6 0 0 680.67 59.83&#10;  Q 685.53 56.16 689.87 51.89&#10;  Q 692.24 49.55 694.17 49.22&#10;  C 697.26 48.68 704.39 48.37 705.07 52.57&#10;  A 1.00 1.00 0.0 0 1 704.78 53.44&#10;  L 702.07 56.16&#10;  A 2.46 2.38 -81.5 0 1 701.56 56.55&#10;  L 687.43 64.71&#10;  A 0.48 0.24 -63.4 0 0 687.31 64.80&#10;  L 682.62 69.49&#10;  A 1.51 1.36 2.9 0 1 682.40 69.67&#10;  Q 678.45 72.15 674.91 72.81&#10;  A 4.09 4.09 0.0 0 1 673.41 72.81&#10;  L 671.46 72.45&#10;  A 0.92 0.81 41.4 0 0 671.09 72.45&#10;  L 662.70 74.37&#10;  A 0.77 0.77 0.0 0 0 662.10 75.08&#10;  L 661.96 78.09&#10;  A 0.87 0.87 0.0 0 0 663.32 78.86&#10;  Q 666.06 77.04 668.97 77.04&#10;  A 1.12 1.11 -16.7 0 1 669.90 77.54&#10;  C 671.73 80.25 669.58 83.30 667.77 86.24&#10;  A 2.49 2.44 5.0 0 1 666.53 87.26&#10;  L 657.31 90.62&#10;  A 1.70 1.35 -51.6 0 1 656.97 90.70&#10;  L 647.40 91.70&#10;  A 2.39 2.35 31.4 0 0 646.97 91.80&#10;  Q 645.43 92.32 639.79 94.05&#10;  Q 629.26 97.28 621.11 103.33&#10;  C 618.67 105.15 616.53 108.22 619.14 111.28&#10;  A 1.29 1.27 76.5 0 0 619.78 111.68&#10;  L 622.65 112.42&#10;  A 1.26 1.19 -11.5 0 1 623.29 112.82&#10;  Q 627.86 118.36 636.00 119.11&#10;  A 1.76 1.62 58.6 0 1 636.56 119.27&#10;  L 642.54 122.25&#10;  A 3.46 3.44 63.6 0 0 643.42 122.55&#10;  Q 647.18 123.24 648.04 123.69&#10;  Q 656.60 128.11 665.36 132.00"
    />
    <path
      stroke="#808080"
      d="&#10;  M 0.00 89.63&#10;  Q 9.06 90.46 10.08 99.75&#10;  Q 10.80 106.34 11.09 112.99&#10;  A 1.82 1.82 0.0 0 0 12.82 114.73&#10;  L 24.05 115.26&#10;  A 1.03 1.03 0.0 0 0 25.13 114.21&#10;  L 24.92 104.75&#10;  A 1.98 1.90 -60.5 0 0 24.70 103.89&#10;  L 22.29 99.42&#10;  A 2.28 2.25 41.3 0 1 22.16 97.55&#10;  L 23.24 94.62&#10;  A 1.28 1.23 -88.6 0 1 23.99 93.88&#10;  L 27.14 92.73&#10;  A 1.12 1.12 0.0 0 0 27.71 92.25&#10;  L 29.45 89.23&#10;  A 1.31 1.28 -84.5 0 1 30.14 88.65&#10;  L 36.22 86.44&#10;  A 0.80 0.78 58.4 0 1 37.07 86.65&#10;  C 41.18 91.10 44.13 94.84 48.72 95.40&#10;  A 1.36 1.36 0.0 0 1 49.68 97.52&#10;  Q 47.13 101.22 45.73 103.97&#10;  C 44.33 106.73 45.63 109.29 46.04 112.00&#10;  A 1.04 1.03 87.2 0 0 47.00 112.88&#10;  Q 54.70 113.31 57.48 112.45&#10;  A 0.41 0.40 82.6 0 1 58.00 112.86&#10;  Q 57.89 114.57 57.43 115.36&#10;  A 0.79 0.78 -68.0 0 0 57.92 116.52&#10;  Q 66.03 118.46 71.63 113.96&#10;  A 3.28 2.68 -30.9 0 0 72.81 110.70&#10;  Q 71.59 107.19 68.50 104.98&#10;  C 66.00 103.20 61.29 104.07 57.83 104.02&#10;  A 1.07 1.06 4.1 0 1 56.79 102.83&#10;  Q 57.10 100.32 58.99 97.98&#10;  C 62.42 93.72 65.44 90.20 67.91 85.13&#10;  Q 70.35 80.12 73.47 75.19&#10;  A 1.81 1.79 -2.0 0 1 73.99 74.64&#10;  L 75.30 73.72&#10;  A 1.35 1.33 -16.3 0 0 75.88 72.68&#10;  L 76.00 70.09&#10;  A 1.13 1.12 77.4 0 1 76.59 69.15&#10;  Q 82.93 65.75 90.33 65.16&#10;  A 2.30 2.29 -82.7 0 1 92.68 68.20&#10;  C 91.17 72.55 87.29 76.43 84.16 79.83&#10;  A 5.32 4.92 -12.3 0 0 83.35 80.99&#10;  C 80.67 86.22 75.08 87.64 72.22 93.48&#10;  A 1.74 1.73 49.3 0 0 72.13 94.76&#10;  Q 73.17 97.99 75.99 100.35&#10;  C 78.15 102.16 81.66 100.28 82.85 97.88&#10;  C 83.80 95.99 86.21 94.46 87.54 92.51&#10;  Q 92.52 85.16 96.84 80.31&#10;  A 8.90 8.83 77.2 0 0 98.44 77.75&#10;  Q 99.69 74.77 103.82 69.12&#10;  Q 108.71 62.42 102.92 57.83&#10;  C 99.91 55.45 99.46 52.92 94.55 54.71&#10;  Q 91.18 55.93 84.28 57.80&#10;  A 1.53 1.52 82.2 0 1 82.35 56.33&#10;  C 82.34 52.77 84.35 50.38 81.75 47.19&#10;  C 80.33 45.46 80.13 44.54 79.15 42.42&#10;  A 2.82 2.82 0.0 0 0 78.42 41.46&#10;  Q 76.64 39.95 74.64 39.29&#10;  A 2.02 2.02 0.0 0 0 72.07 41.76&#10;  C 73.66 47.33 72.31 50.11 70.12 55.77&#10;  Q 67.33 62.95 65.90 65.95&#10;  Q 65.00 67.83 63.37 70.02&#10;  A 2.30 2.29 -73.0 0 1 61.63 70.95&#10;  L 57.11 71.16&#10;  A 1.34 1.33 -66.5 0 0 56.30 71.48&#10;  Q 52.86 74.38 47.17 74.09&#10;  A 2.06 2.04 -2.7 0 1 45.25 72.36&#10;  Q 44.38 66.80 40.54 62.49&#10;  C 37.85 59.47 35.44 63.42 34.34 65.47&#10;  A 1.20 1.19 -44.7 0 0 34.33 66.57&#10;  C 36.25 70.42 38.99 74.83 37.82 79.28&#10;  A 2.41 2.39 83.6 0 1 36.62 80.79&#10;  Q 29.64 84.46 26.15 85.88&#10;  Q 21.52 87.77 15.76 87.87&#10;  Q 14.28 87.89 9.64 86.73&#10;  Q 4.80 85.51 0.00 86.32"
    />
    <path
      stroke="#808080"
      d="&#10;  M 251.70 66.71&#10;  Q 254.26 65.43 255.22 64.22&#10;  C 260.35 57.73 267.14 51.28 271.52 44.52&#10;  C 272.53 42.95 273.90 42.13 274.80 40.72&#10;  Q 275.31 39.94 277.19 37.81&#10;  Q 282.51 31.78 283.65 29.66&#10;  C 289.19 19.31 279.33 17.95 273.77 13.53&#10;  A 1.70 1.68 68.5 0 0 272.98 13.18&#10;  C 269.04 12.57 266.08 15.01 267.06 19.36&#10;  A 0.73 0.72 -4.7 0 0 267.73 19.92&#10;  L 271.31 20.09&#10;  A 0.80 0.79 -88.9 0 1 272.07 20.89&#10;  Q 272.05 24.27 270.53 28.05&#10;  Q 266.30 38.63 265.54 40.31&#10;  C 264.02 43.68 261.20 46.63 259.34 49.43&#10;  C 255.79 54.77 253.20 59.15 250.65 62.44&#10;  Q 249.13 64.40 250.82 66.51&#10;  A 0.71 0.71 0.0 0 0 251.70 66.71"
    />
    <path
      stroke="#808080"
      d="&#10;  M 439.97 20.38&#10;  L 434.73 13.51&#10;  A 0.96 0.96 0.0 0 0 433.44 13.29&#10;  Q 428.47 16.51 426.97 17.96&#10;  Q 424.43 20.44 421.20 26.13&#10;  C 420.67 27.06 419.79 27.83 419.99 29.13&#10;  A 1.45 1.14 -11.0 0 0 421.67 29.99&#10;  C 423.29 29.64 425.93 28.62 427.74 27.47&#10;  Q 433.20 24.00 439.53 21.84&#10;  A 0.94 0.94 0.0 0 0 439.97 20.38"
    />
    <path
      stroke="#808080"
      d="&#10;  M 534.30 85.27&#10;  Q 534.18 85.52 531.93 90.05&#10;  C 530.46 93.02 526.25 98.71 522.75 99.34&#10;  A 0.66 0.65 -2.9 0 0 522.21 99.93&#10;  Q 522.09 101.39 521.23 102.26&#10;  A 1.68 1.68 0.0 0 1 520.28 102.76&#10;  Q 515.02 103.59 510.20 105.00&#10;  C 507.18 105.88 502.78 105.76 499.53 107.74&#10;  A 1.11 1.11 0.0 0 0 499.89 109.78&#10;  L 508.78 111.59&#10;  A 4.23 4.17 -43.0 0 0 510.19 111.63&#10;  C 519.67 110.30 526.35 109.26 533.25 104.74&#10;  C 534.32 104.04 535.57 103.81 536.32 103.01&#10;  A 2.26 2.15 76.0 0 0 536.84 102.09&#10;  Q 537.47 99.81 538.33 98.94&#10;  A 0.78 0.76 54.3 0 0 538.47 98.05&#10;  Q 537.91 96.97 538.13 96.42&#10;  Q 539.72 92.39 540.28 88.77&#10;  A 1.39 1.36 -13.4 0 1 540.86 87.85&#10;  Q 542.94 86.44 544.34 88.48&#10;  Q 548.22 94.11 556.23 109.50&#10;  Q 561.46 119.55 573.63 117.87&#10;  A 2.61 2.54 -69.9 0 0 575.06 117.18&#10;  L 583.55 109.05&#10;  A 10.05 9.99 -81.6 0 1 585.46 107.62&#10;  Q 588.61 105.81 591.22 103.91&#10;  Q 592.40 103.05 591.91 101.59&#10;  A 0.68 0.67 -17.0 0 0 591.08 101.16&#10;  C 585.67 102.71 579.63 104.58 573.52 103.49&#10;  Q 563.92 101.80 557.69 95.33&#10;  Q 553.52 91.00 549.61 86.15&#10;  Q 548.99 85.38 546.97 83.86&#10;  A 1.77 1.73 8.3 0 1 546.39 83.10&#10;  Q 545.41 80.63 546.09 77.88&#10;  A 1.33 1.32 -7.4 0 1 546.75 77.03&#10;  Q 551.96 74.28 557.36 73.87&#10;  A 3.23 3.17 21.5 0 0 559.27 73.06&#10;  Q 561.28 71.25 563.63 70.44&#10;  C 566.89 69.30 570.80 67.44 572.76 66.18&#10;  Q 576.35 63.88 574.66 59.53&#10;  A 1.33 1.31 -1.8 0 0 573.83 58.76&#10;  Q 569.11 57.24 564.61 58.25&#10;  A 1.98 1.97 4.2 0 0 563.19 59.47&#10;  L 561.09 64.83&#10;  A 4.29 4.09 -13.5 0 1 560.16 66.27&#10;  Q 555.18 71.35 547.67 71.10&#10;  A 0.78 0.77 7.8 0 1 546.94 70.14&#10;  Q 549.69 59.06 553.71 49.69&#10;  A 2.46 2.39 -30.2 0 0 553.83 49.26&#10;  L 556.77 32.52&#10;  A 4.35 4.34 37.4 0 0 556.42 29.91&#10;  Q 555.21 27.34 555.09 25.17&#10;  C 554.93 22.37 553.86 21.22 551.86 19.16&#10;  Q 548.30 15.51 546.73 14.45&#10;  A 3.14 3.11 50.5 0 0 543.74 14.15&#10;  L 541.91 14.93&#10;  A 1.08 1.07 -35.5 0 0 541.61 16.71&#10;  Q 545.15 19.92 545.68 23.07&#10;  Q 546.79 29.70 545.71 42.38&#10;  A 6.29 6.26 -32.6 0 1 545.34 44.05&#10;  Q 542.22 52.44 541.41 61.17&#10;  Q 541.08 64.59 539.80 66.87&#10;  A 3.26 3.22 -26.2 0 0 539.44 67.91&#10;  C 538.79 72.06 537.74 75.74 532.81 76.61&#10;  Q 523.00 78.34 522.82 78.38&#10;  A 19.18 18.85 27.7 0 0 519.80 79.29&#10;  L 511.53 82.56&#10;  A 3.29 3.28 -59.1 0 1 510.66 82.78&#10;  Q 507.88 83.09 503.24 83.03&#10;  Q 500.27 82.99 499.48 85.79&#10;  C 498.78 88.26 500.24 91.09 502.73 92.26&#10;  Q 506.51 94.02 509.82 92.27&#10;  Q 517.85 88.02 519.61 87.66&#10;  A 5.92 5.87 22.6 0 0 521.58 86.86&#10;  Q 524.85 84.79 526.69 83.90&#10;  Q 528.87 82.85 532.54 82.63&#10;  A 1.83 1.83 0.0 0 1 534.30 85.27"
    />
    <path
      stroke="#808080"
      d="&#10;  M 87.21 41.21&#10;  C 89.25 39.32 90.61 38.82 93.59 38.09&#10;  A 12.05 12.00 23.1 0 0 96.64 36.87&#10;  Q 104.19 32.52 105.56 31.55&#10;  Q 106.81 30.66 108.61 27.11&#10;  A 1.42 1.39 -86.4 0 1 109.37 26.43&#10;  L 111.01 25.81&#10;  A 1.67 1.67 0.0 0 0 111.91 23.49&#10;  Q 107.95 15.78 98.49 14.96&#10;  Q 96.72 14.80 92.71 15.69&#10;  A 2.99 2.94 -45.5 0 1 91.63 15.71&#10;  L 90.89 15.58&#10;  A 1.56 1.54 -51.7 0 0 90.00 15.69&#10;  Q 80.66 19.99 67.58 24.50&#10;  Q 64.99 25.40 63.35 25.80&#10;  Q 60.25 26.55 54.29 29.02&#10;  Q 50.87 30.44 43.25 31.90&#10;  C 41.10 32.32 38.86 33.21 37.19 33.57&#10;  A 8.69 8.63 41.2 0 1 34.48 33.74&#10;  C 30.02 33.32 24.84 32.30 22.42 34.01&#10;  Q 21.69 34.54 21.03 34.72&#10;  A 1.93 1.89 -45.6 0 1 20.05 34.74&#10;  Q 15.24 33.56 10.82 32.61&#10;  C 7.62 31.93 2.98 33.76 5.94 37.81&#10;  Q 12.44 46.67 13.26 48.26&#10;  Q 14.83 51.31 18.11 53.14&#10;  C 23.19 55.98 25.66 51.29 29.87 49.25&#10;  Q 44.25 42.29 59.07 38.46&#10;  A 3.86 3.61 23.7 0 0 59.78 38.21&#10;  L 61.91 37.20&#10;  A 4.10 3.89 23.3 0 1 62.64 36.93&#10;  L 76.12 33.20&#10;  A 2.51 1.91 26.1 0 1 76.43 33.14&#10;  L 83.06 32.38&#10;  A 1.58 1.57 13.4 0 1 84.56 34.81&#10;  Q 83.01 37.15 82.94 40.07&#10;  A 0.89 0.89 0.0 0 0 83.68 40.97&#10;  L 86.41 41.45&#10;  A 0.93 0.93 0.0 0 0 87.21 41.21"
    />
    <path
      stroke="#808080"
      d="&#10;  M 158.54 93.32&#10;  A 0.68 0.68 0.0 0 1 159.44 93.82&#10;  Q 160.29 97.94 162.34 100.65&#10;  A 1.05 1.05 0.0 0 0 163.22 101.07&#10;  C 165.82 100.95 167.10 97.83 168.37 96.60&#10;  A 1.45 1.39 72.5 0 0 168.80 95.73&#10;  C 169.36 90.97 168.10 85.21 168.45 79.41&#10;  C 169.04 69.66 168.83 64.28 170.30 55.70&#10;  Q 171.03 51.42 171.41 44.25&#10;  Q 171.74 38.00 175.14 33.65&#10;  A 3.64 3.62 -38.4 0 0 175.58 29.89&#10;  Q 174.52 27.60 172.68 26.13&#10;  Q 167.29 21.83 165.71 20.35&#10;  A 1.02 1.02 0.0 0 0 164.69 20.12&#10;  C 160.43 21.56 162.73 26.52 162.81 29.76&#10;  Q 162.88 32.41 162.85 32.76&#10;  C 161.44 46.00 160.42 59.76 160.89 73.10&#10;  C 161.10 79.28 160.18 83.75 159.95 89.21&#10;  A 0.66 0.66 0.0 0 1 159.28 89.84&#10;  C 153.99 89.72 152.40 92.35 149.01 95.30&#10;  A 3.27 3.20 18.4 0 1 147.56 96.01&#10;  C 145.06 96.54 143.54 98.25 141.40 99.21&#10;  Q 134.97 102.09 133.95 102.71&#10;  Q 130.72 104.66 132.89 108.06&#10;  C 135.78 112.57 147.05 111.89 148.85 106.59&#10;  C 149.76 103.91 150.29 103.25 151.22 100.79&#10;  C 152.74 96.82 154.70 94.70 158.54 93.32"
    />
    <path
      stroke="#808080"
      d="&#10;  M 384.23 36.10&#10;  L 382.13 36.00&#10;  A 1.19 1.19 0.0 0 1 381.02 34.61&#10;  L 382.03 28.87&#10;  A 2.45 2.45 0.0 0 0 380.73 26.27&#10;  L 380.42 26.11&#10;  A 1.68 1.67 -71.6 0 0 377.97 27.34&#10;  Q 377.37 31.44 374.10 32.16&#10;  A 1.30 1.30 0.0 0 0 373.21 32.85&#10;  L 370.11 39.09&#10;  A 0.10 0.08 -38.0 0 0 370.10 39.13&#10;  Q 369.91 40.62 372.51 45.63&#10;  Q 374.78 50.00 379.37 48.82&#10;  A 1.73 1.72 -0.6 0 0 380.62 47.55&#10;  L 381.27 44.87&#10;  A 2.41 2.25 74.4 0 1 381.78 43.89&#10;  C 384.40 40.90 385.42 40.44 384.93 36.74&#10;  A 0.73 0.73 0.0 0 0 384.23 36.10"
    />
    <path
      stroke="#808080"
      d="&#10;  M 393.28 32.06&#10;  Q 396.02 31.71 398.46 33.09&#10;  A 2.11 2.09 -87.0 0 1 399.36 34.10&#10;  L 401.26 38.55&#10;  A 2.38 2.38 0.0 0 0 403.93 39.95&#10;  Q 407.00 39.32 407.97 36.20&#10;  Q 409.25 32.12 410.99 27.34&#10;  A 0.98 0.98 0.0 0 0 410.21 26.04&#10;  C 408.63 25.82 407.00 26.15 405.37 27.03&#10;  Q 403.79 27.89 403.06 27.90&#10;  Q 398.25 27.99 395.74 28.25&#10;  A 3.80 3.80 0.0 0 0 392.84 30.13&#10;  L 392.45 30.81&#10;  A 0.84 0.84 0.0 0 0 393.28 32.06"
    />
    <path
      stroke="#808080"
      d="&#10;  M 296.66 45.85&#10;  L 302.99 46.15&#10;  A 2.18 2.17 2.9 0 1 305.06 48.43&#10;  L 304.93 51.22&#10;  A 0.78 0.77 -11.5 0 0 306.04 51.95&#10;  Q 319.74 45.44 328.61 33.79&#10;  A 1.26 1.25 59.3 0 0 328.85 32.82&#10;  Q 328.60 31.37 327.37 29.91&#10;  C 325.70 27.93 323.42 29.25 321.23 30.48&#10;  Q 315.05 33.97 313.31 36.71&#10;  A 2.44 2.42 -83.5 0 1 312.07 37.70&#10;  Q 309.23 38.71 307.54 40.56&#10;  A 2.86 2.71 8.8 0 1 306.53 41.26&#10;  C 303.05 42.67 299.30 41.52 296.16 44.51&#10;  A 0.78 0.78 0.0 0 0 296.66 45.85"
    />
    <path
      stroke="#808080"
      d="&#10;  M 192.90 86.83&#10;  Q 193.23 83.22 194.48 80.70&#10;  A 1.58 1.58 0.0 0 0 194.58 79.54&#10;  C 193.55 76.10 193.55 73.12 196.44 70.58&#10;  A 2.09 2.05 17.1 0 1 197.37 70.10&#10;  Q 204.23 68.55 205.57 68.08&#10;  C 208.84 66.93 210.92 61.98 211.71 59.07&#10;  A 3.90 3.88 41.0 0 0 211.53 56.53&#10;  L 206.11 43.81&#10;  A 3.02 2.92 13.1 0 0 205.56 42.96&#10;  Q 203.95 41.22 202.90 37.78&#10;  C 201.87 34.39 198.63 29.51 194.36 31.27&#10;  A 1.26 1.25 89.0 0 0 193.65 32.01&#10;  C 192.30 35.60 188.72 39.75 187.89 44.05&#10;  Q 187.20 47.60 187.44 50.20&#10;  C 187.92 55.39 187.17 60.00 186.88 64.65&#10;  A 3.24 3.23 -16.7 0 1 185.58 67.05&#10;  C 182.93 69.04 179.11 71.10 180.04 73.43&#10;  A 0.94 0.93 74.4 0 0 181.04 74.00&#10;  Q 185.24 73.40 185.07 77.70&#10;  Q 184.86 82.98 183.94 88.72&#10;  Q 183.73 90.01 184.26 91.57&#10;  A 1.76 1.75 -82.6 0 0 184.91 92.42&#10;  Q 187.41 94.15 192.31 95.42&#10;  Q 194.88 96.09 198.30 98.51&#10;  A 1.15 1.15 0.0 0 0 199.28 98.68&#10;  C 204.15 97.34 217.08 94.19 214.90 88.74&#10;  C 213.37 84.93 204.60 85.78 201.44 86.45&#10;  Q 200.70 86.61 196.68 88.54&#10;  A 1.62 1.60 34.5 0 1 195.79 88.70&#10;  Q 194.17 88.53 193.26 87.73&#10;  A 1.07 1.06 23.4 0 1 192.90 86.83"
    />
    <path
      stroke="#808080"
      d="&#10;  M 422.66 77.36&#10;  Q 426.09 78.08 427.21 80.25&#10;  A 1.20 1.18 77.2 0 0 428.21 80.89&#10;  L 432.05 81.07&#10;  A 0.98 0.97 1.4 0 0 433.08 80.10&#10;  Q 433.10 75.32 431.30 70.72&#10;  A 0.99 0.98 55.7 0 1 431.49 69.70&#10;  Q 431.84 69.31 431.93 68.94&#10;  A 0.42 0.42 0.0 0 0 431.41 68.43&#10;  L 430.64 68.65&#10;  A 0.76 0.75 61.7 0 1 429.88 68.42&#10;  C 429.02 67.47 428.50 66.62 429.36 65.44&#10;  Q 430.88 63.35 431.48 62.97&#10;  Q 433.71 61.55 439.56 56.07&#10;  C 444.03 51.88 441.40 50.01 438.59 45.45&#10;  A 1.06 1.05 74.2 0 0 437.69 44.94&#10;  C 433.66 44.96 433.76 47.23 431.47 48.68&#10;  A 2.19 2.12 27.0 0 1 430.39 49.01&#10;  Q 426.86 49.13 425.13 50.45&#10;  A 0.62 0.61 40.9 0 0 425.21 51.47&#10;  C 427.41 52.71 428.94 55.12 427.05 57.49&#10;  Q 425.72 59.17 425.95 61.94&#10;  A 0.78 0.77 80.1 0 1 425.39 62.75&#10;  L 423.65 63.23&#10;  A 0.91 0.88 8.5 0 0 423.16 63.58&#10;  C 421.31 66.28 422.14 69.40 423.80 71.67&#10;  A 0.30 0.30 0.0 0 1 423.45 72.13&#10;  C 419.58 70.73 418.80 66.82 418.99 63.07&#10;  A 1.12 1.12 0.0 0 0 417.58 61.93&#10;  L 416.53 62.22&#10;  A 1.94 1.92 83.8 0 0 415.12 63.99&#10;  L 414.90 68.68&#10;  A 4.97 4.84 59.8 0 1 414.44 70.52&#10;  Q 411.48 76.81 411.10 84.02&#10;  Q 410.60 93.37 411.08 102.63&#10;  A 0.41 0.41 0.0 0 0 411.20 102.92&#10;  L 416.29 108.01&#10;  A 3.45 3.43 56.7 0 0 419.96 108.78&#10;  Q 424.91 106.84 430.56 106.54&#10;  Q 439.40 106.07 457.80 104.81&#10;  A 2.70 2.70 0.0 0 0 459.99 103.41&#10;  C 462.45 98.86 462.75 93.75 460.95 88.79&#10;  Q 459.98 86.12 459.82 84.50&#10;  A 3.67 3.65 -64.6 0 0 459.25 82.88&#10;  C 457.62 80.39 458.10 77.27 457.70 74.77&#10;  A 5.66 5.65 -84.2 0 0 454.13 70.38&#10;  L 454.10 70.37&#10;  A 2.26 2.26 0.0 0 0 451.03 72.53&#10;  Q 451.08 75.14 451.57 77.67&#10;  C 452.27 81.29 450.94 83.91 451.46 87.61&#10;  C 451.96 91.13 451.68 94.81 447.29 94.83&#10;  C 441.98 94.86 436.04 95.15 431.41 96.74&#10;  Q 427.70 98.01 424.61 98.65&#10;  A 2.13 2.12 -6.7 0 1 422.05 96.64&#10;  Q 421.82 89.48 421.05 82.56&#10;  Q 420.94 81.58 422.04 77.74&#10;  A 0.54 0.53 -75.9 0 1 422.66 77.36"
    />
    <path
      stroke="#808080"
      d="&#10;  M 269.69 80.85&#10;  L 274.37 81.07&#10;  A 0.52 0.52 0.0 0 1 274.83 81.77&#10;  Q 273.63 84.93 274.03 88.41&#10;  A 2.96 2.94 -78.4 0 0 275.48 90.63&#10;  L 279.48 92.94&#10;  A 0.89 0.89 0.0 0 0 280.39 92.92&#10;  Q 282.51 91.60 282.70 90.37&#10;  Q 283.37 86.04 284.27 84.88&#10;  A 1.84 1.81 60.8 0 0 284.64 83.54&#10;  L 283.73 75.91&#10;  A 1.12 1.12 0.0 0 0 282.85 74.94&#10;  Q 281.68 74.76 282.11 72.05&#10;  A 0.96 0.96 0.0 0 1 282.54 71.40&#10;  Q 283.97 70.47 284.59 67.60&#10;  A 0.84 0.83 -65.9 0 0 284.27 66.74&#10;  Q 283.56 66.23 282.88 64.74&#10;  A 1.26 1.26 0.0 0 0 281.78 64.00&#10;  L 280.43 63.93&#10;  A 0.34 0.34 0.0 0 1 280.23 63.32&#10;  Q 281.56 62.25 282.28 59.76&#10;  A 2.05 2.03 78.9 0 1 282.98 58.71&#10;  L 284.21 57.73&#10;  A 1.43 1.43 0.0 0 0 284.72 56.98&#10;  L 285.85 53.00&#10;  A 1.74 1.62 -43.0 0 0 285.90 52.30&#10;  C 285.39 48.86 281.12 46.22 278.36 49.15&#10;  Q 271.04 56.91 261.73 63.69&#10;  Q 260.61 64.51 258.56 67.24&#10;  A 1.48 1.47 55.2 0 0 258.33 68.54&#10;  L 258.70 69.72&#10;  A 3.57 3.56 -47.3 0 1 258.77 71.52&#10;  C 257.70 76.35 259.21 82.18 255.39 86.07&#10;  C 252.10 89.42 252.82 92.14 253.49 96.82&#10;  Q 253.90 99.66 255.39 100.62&#10;  Q 259.41 103.18 264.23 102.91&#10;  A 1.78 1.77 -1.6 0 0 265.90 101.15&#10;  Q 265.93 94.81 266.08 78.41&#10;  C 266.09 76.67 266.96 74.97 265.57 73.30&#10;  Q 263.54 70.88 262.48 69.18&#10;  A 1.10 1.09 64.0 0 1 263.03 67.57&#10;  Q 265.85 66.55 267.78 64.83&#10;  A 2.46 2.46 0.0 0 1 271.54 65.44&#10;  L 276.60 74.21&#10;  A 0.57 0.56 64.2 0 1 276.32 75.02&#10;  C 273.54 76.10 270.21 77.05 269.34 80.38&#10;  A 0.38 0.37 8.6 0 0 269.69 80.85"
    />
    <path
      stroke="#808080"
      d="&#10;  M 400.22 62.54&#10;  A 0.82 0.82 0.0 0 1 401.01 63.76&#10;  Q 399.03 67.29 398.84 70.29&#10;  A 0.53 0.52 -9.9 0 0 399.57 70.80&#10;  Q 403.98 68.95 405.44 64.41&#10;  A 2.17 2.07 78.0 0 1 405.95 63.58&#10;  L 407.51 62.02&#10;  A 1.57 1.57 0.0 0 0 407.03 59.47&#10;  Q 403.79 58.04 400.56 59.08&#10;  A 1.23 1.22 -13.0 0 1 398.98 58.10&#10;  Q 398.23 53.10 397.52 50.03&#10;  Q 397.18 48.57 396.28 48.16&#10;  A 2.76 2.44 25.0 0 0 392.76 49.20&#10;  Q 391.85 51.13 391.94 54.36&#10;  A 0.75 0.75 0.0 0 1 391.15 55.13&#10;  L 387.93 54.98&#10;  A 0.99 0.98 -21.0 0 0 387.18 56.66&#10;  L 390.34 59.83&#10;  A 2.42 2.41 -51.6 0 1 390.68 62.83&#10;  L 387.85 67.31&#10;  A 1.13 1.13 0.0 0 1 387.02 67.83&#10;  Q 386.42 67.93 383.41 69.62&#10;  Q 381.33 70.78 377.77 70.98&#10;  C 374.92 71.15 374.05 72.20 372.35 74.14&#10;  A 1.52 1.50 64.7 0 0 371.97 75.22&#10;  C 372.16 78.87 375.82 79.35 378.96 78.95&#10;  A 0.96 0.95 4.1 0 0 379.76 78.26&#10;  L 380.26 76.48&#10;  A 1.57 1.50 76.6 0 1 380.65 75.81&#10;  L 384.35 72.12&#10;  A 1.89 1.88 53.1 0 1 387.34 72.55&#10;  Q 388.59 74.84 386.74 75.54&#10;  C 382.43 77.18 387.60 81.08 385.52 83.99&#10;  A 2.30 2.30 0.0 0 1 384.33 84.85&#10;  Q 378.46 86.63 374.87 92.17&#10;  A 5.26 5.26 0.0 0 1 373.89 93.29&#10;  C 371.25 95.61 369.99 97.61 365.83 99.28&#10;  A 1.16 1.12 -0.3 0 0 365.22 99.88&#10;  Q 363.95 102.82 364.07 103.74&#10;  C 364.54 107.42 366.69 107.08 369.57 107.08&#10;  Q 371.23 107.08 372.09 106.30&#10;  Q 376.53 102.23 378.93 100.13&#10;  A 1.23 1.22 66.9 0 1 380.96 100.95&#10;  Q 381.17 103.44 380.72 105.74&#10;  C 379.82 110.35 382.45 113.57 385.29 117.52&#10;  A 3.27 3.27 0.0 0 0 388.28 118.85&#10;  L 389.11 118.77&#10;  A 1.77 1.77 0.0 0 0 390.47 116.16&#10;  Q 387.90 111.50 389.93 106.13&#10;  Q 391.98 100.74 394.03 95.30&#10;  Q 395.05 92.61 397.52 91.28&#10;  A 0.90 0.70 20.9 0 1 397.81 91.19&#10;  L 403.63 90.45&#10;  A 1.59 1.58 -2.4 0 0 405.02 88.95&#10;  Q 405.29 83.66 402.68 80.01&#10;  A 0.73 0.72 42.4 0 1 402.64 79.23&#10;  L 404.36 76.25&#10;  A 1.47 1.46 -85.2 0 0 402.58 74.14&#10;  Q 399.08 75.45 396.52 73.89&#10;  A 1.11 1.11 0.0 0 1 396.04 72.61&#10;  Q 397.22 68.86 397.06 64.01&#10;  A 1.22 1.22 0.0 0 1 398.15 62.76&#10;  L 400.22 62.54"
    />
    <path
      stroke="#808080"
      d="&#10;  M 302.33 73.58&#10;  Q 303.58 75.37 303.27 77.28&#10;  Q 303.19 77.75 300.83 86.89&#10;  A 3.59 3.55 51.8 0 0 300.71 87.95&#10;  Q 301.11 101.63 300.96 105.77&#10;  Q 300.71 112.45 304.51 117.76&#10;  A 0.80 0.80 0.0 0 0 305.63 117.94&#10;  C 309.01 115.53 309.68 106.08 309.87 101.20&#10;  Q 310.31 89.42 312.11 78.75&#10;  A 0.90 0.88 88.1 0 1 312.77 78.03&#10;  C 318.65 76.49 319.46 74.23 321.39 68.50&#10;  A 1.83 1.81 81.9 0 1 322.06 67.60&#10;  L 323.67 66.46&#10;  A 0.90 0.80 -4.8 0 0 323.87 66.25&#10;  L 328.68 59.00&#10;  A 0.78 0.78 0.0 0 0 328.58 58.02&#10;  C 325.27 54.72 322.91 53.47 318.00 54.43&#10;  Q 312.59 55.50 307.23 54.55&#10;  A 0.77 0.73 -46.5 0 0 306.85 54.57&#10;  L 302.48 56.02&#10;  A 0.71 0.71 0.0 0 0 302.04 56.94&#10;  L 303.41 60.70&#10;  A 1.08 1.07 -43.1 0 1 303.38 61.51&#10;  L 300.99 67.08&#10;  A 1.15 1.07 -9.3 0 1 300.65 67.52&#10;  Q 297.91 69.69 294.69 70.63&#10;  C 291.88 71.44 290.83 72.30 290.17 74.83&#10;  A 1.52 1.51 18.0 0 0 291.09 76.62&#10;  C 295.10 78.18 298.27 74.96 301.32 73.34&#10;  A 0.78 0.78 0.0 0 1 302.33 73.58"
    />
    <path
      stroke="#808080"
      d="&#10;  M 145.83 95.68&#10;  Q 149.84 89.97 155.38 80.12&#10;  Q 157.00 77.25 155.00 73.85&#10;  A 1.24 1.24 0.0 0 0 154.16 73.27&#10;  L 151.18 72.75&#10;  A 2.08 1.86 62.2 0 1 150.53 72.51&#10;  Q 146.26 69.99 141.33 71.37&#10;  A 2.18 2.02 66.5 0 0 140.23 74.51&#10;  Q 141.17 76.12 143.22 77.10&#10;  A 1.15 1.15 0.0 0 1 143.85 78.00&#10;  Q 144.64 85.80 143.17 92.57&#10;  A 1.24 1.23 -50.0 0 0 143.23 93.29&#10;  L 144.18 95.51&#10;  A 0.95 0.95 0.0 0 0 145.83 95.68"
    />
    <path
      stroke="#808080"
      d="&#10;  M 671.90 0.00&#10;  Q 675.43 2.51 679.88 3.61&#10;  Q 682.11 4.16 682.88 6.33&#10;  C 684.84 11.85 679.59 14.56 675.27 16.08&#10;  A 4.20 4.13 12.6 0 0 673.73 17.04&#10;  C 671.37 19.35 669.69 20.58 669.10 22.85&#10;  A 1.69 1.50 12.1 0 0 670.49 24.74&#10;  C 673.95 25.36 680.48 20.42 683.09 18.06&#10;  Q 688.05 13.57 693.88 10.11&#10;  A 6.65 6.54 24.2 0 1 696.12 9.28&#10;  C 699.49 8.67 702.72 7.00 706.09 6.97&#10;  Q 711.62 6.92 714.00 10.53"
    />
    <path
      stroke="#808080"
      d="&#10;  M 714.00 14.14&#10;  Q 709.94 18.58 705.60 23.11&#10;  Q 704.65 24.10 703.01 29.87&#10;  A 8.17 8.12 69.1 0 1 702.06 32.01&#10;  L 695.71 42.14&#10;  A 1.63 1.49 -8.7 0 1 695.50 42.40&#10;  L 694.07 43.83&#10;  A 2.11 2.11 0.0 0 0 695.93 47.40&#10;  Q 697.01 47.21 701.04 46.84&#10;  Q 707.61 46.24 709.94 52.04&#10;  A 1.70 1.70 0.0 0 1 709.35 54.06&#10;  Q 707.73 55.23 706.33 57.03&#10;  A 4.60 4.41 -1.5 0 1 705.52 57.85&#10;  C 702.27 60.45 696.89 64.41 692.51 64.92&#10;  C 690.28 65.17 688.87 66.55 686.69 67.24&#10;  A 2.62 2.56 -75.7 0 0 685.64 67.88&#10;  L 682.76 70.77&#10;  A 1.64 1.57 -14.0 0 0 682.38 71.37&#10;  L 680.94 75.64&#10;  A 6.54 6.45 71.2 0 1 680.24 77.09&#10;  L 676.16 83.40&#10;  A 0.37 0.37 0.0 0 0 676.37 83.96&#10;  C 679.67 84.88 681.49 83.87 684.83 83.00&#10;  A 1.93 1.93 0.0 0 1 686.01 83.06&#10;  Q 687.67 83.71 688.65 85.12&#10;  C 691.59 89.37 693.24 92.55 696.02 94.08&#10;  A 1.99 1.99 0.0 0 1 695.76 97.68&#10;  Q 695.23 97.88 694.53 97.94&#10;  Q 686.77 98.59 675.00 96.03&#10;  A 2.08 2.07 -69.4 0 0 672.74 97.06&#10;  Q 672.37 97.73 672.15 99.42&#10;  A 2.67 2.55 -47.7 0 0 672.17 100.27&#10;  C 672.65 103.01 673.03 104.93 672.60 107.92&#10;  Q 672.01 112.02 672.76 115.57&#10;  Q 673.26 117.99 672.43 120.49&#10;  Q 671.07 124.55 670.85 128.78&#10;  Q 670.76 130.59 668.50 132.00"
    />
    <path
      stroke="#808080"
      d="&#10;  M 681.29 27.68&#10;  L 684.68 28.74&#10;  A 1.84 1.84 0.0 0 1 685.95 30.21&#10;  Q 686.65 34.39 684.65 36.98&#10;  A 2.71 2.71 0.0 0 0 685.06 40.71&#10;  L 685.98 41.47&#10;  A 2.33 2.32 38.0 0 0 689.35 41.06&#10;  Q 690.98 38.82 692.42 36.17&#10;  Q 696.49 28.65 700.02 23.02&#10;  Q 701.07 21.34 701.85 19.09&#10;  A 2.41 2.24 -62.8 0 0 701.11 16.45&#10;  Q 700.54 16.02 699.35 16.14&#10;  C 693.41 16.77 689.56 22.67 683.43 23.16&#10;  A 1.71 1.69 -77.1 0 0 682.09 24.01&#10;  L 680.76 26.32&#10;  A 0.93 0.93 0.0 0 0 681.29 27.68"
    />
    <path
      stroke="#808080"
      d="&#10;  M 655.16 25.42&#10;  C 652.30 27.98 648.73 30.41 650.24 34.46&#10;  C 651.21 37.05 655.21 36.08 656.86 35.07&#10;  Q 657.84 34.48 663.42 30.21&#10;  A 0.96 0.96 0.0 0 0 663.31 28.61&#10;  Q 661.55 27.60 659.31 28.77&#10;  A 1.03 1.02 -37.1 0 1 658.13 28.61&#10;  Q 657.08 27.60 656.17 25.63&#10;  A 0.64 0.64 0.0 0 0 655.16 25.42"
    />
    <path
      stroke="#808080"
      d="&#10;  M 668.57 39.01&#10;  Q 668.84 39.06 670.61 40.58&#10;  Q 672.48 42.19 675.15 42.09&#10;  A 0.80 0.78 -85.9 0 0 675.90 41.43&#10;  L 677.04 34.98&#10;  A 1.51 1.51 0.0 0 1 679.92 34.65&#10;  L 681.12 37.46&#10;  A 0.77 0.77 0.0 0 0 682.59 37.29&#10;  L 683.45 32.41&#10;  A 0.65 0.63 35.1 0 0 683.36 31.94&#10;  Q 682.53 30.62 681.23 30.13&#10;  A 0.93 0.91 -53.5 0 0 680.34 30.27&#10;  L 677.39 32.52&#10;  A 0.72 0.69 -8.3 0 0 677.18 32.79&#10;  Q 676.45 34.41 674.91 35.56&#10;  A 1.68 1.64 -64.2 0 1 673.97 35.90&#10;  L 670.13 36.09&#10;  A 1.19 1.16 13.6 0 0 669.17 36.66&#10;  L 668.20 38.24&#10;  A 0.51 0.50 -71.0 0 0 668.57 39.01"
    />
    <path
      stroke="#808080"
      d="&#10;  M 664.18 34.73&#10;  A 0.41 0.41 0.0 0 0 664.63 34.10&#10;  Q 664.17 33.48 663.62 33.37&#10;  A 0.30 0.30 0.0 0 0 663.35 33.88&#10;  Q 664.15 34.72 664.18 34.73"
    />
    <path
      stroke="#808080"
      d="&#10;  M 632.27 76.82&#10;  C 638.49 73.80 643.69 70.99 650.21 68.54&#10;  C 656.18 66.29 657.92 65.21 663.56 63.33&#10;  Q 667.62 61.97 669.90 59.88&#10;  A 2.79 2.76 22.6 0 1 671.70 59.15&#10;  Q 673.96 59.08 676.44 57.84&#10;  A 1.51 1.51 0.0 0 0 676.52 55.18&#10;  L 673.45 53.41&#10;  A 0.76 0.74 -34.9 0 0 672.91 53.32&#10;  Q 667.92 54.26 666.92 54.68&#10;  Q 657.55 58.57 650.56 61.11&#10;  Q 648.70 61.79 646.02 63.10&#10;  C 641.66 65.24 638.52 66.65 636.69 70.87&#10;  A 1.58 1.56 89.6 0 1 635.90 71.68&#10;  Q 633.51 72.78 631.86 76.42&#10;  A 0.31 0.30 89.0 0 0 632.27 76.82"
    />
    <path
      stroke="#808080"
      d="&#10;  M 666.73 100.65&#10;  C 666.06 98.58 664.66 97.99 662.37 98.37&#10;  C 656.62 99.33 650.58 100.08 646.04 102.13&#10;  A 5.39 5.36 -59.6 0 1 644.26 102.60&#10;  C 639.81 102.99 624.21 104.21 626.00 111.28&#10;  C 626.46 113.09 628.48 114.62 630.25 114.81&#10;  Q 634.29 115.24 637.56 116.50&#10;  Q 640.32 117.56 652.06 119.66&#10;  A 1.70 1.64 -24.3 0 1 652.62 119.86&#10;  L 655.73 121.66&#10;  A 1.13 1.11 54.7 0 0 656.45 121.79&#10;  L 662.56 120.77&#10;  A 1.09 1.09 0.0 0 0 663.35 120.19&#10;  C 665.31 116.38 665.16 108.90 665.16 103.99&#10;  Q 665.16 103.27 666.53 101.66&#10;  A 1.06 1.06 0.0 0 0 666.73 100.65"
    />
    <path
      stroke="#808080"
      d="&#10;  M 195.10 39.47&#10;  Q 194.67 40.20 194.43 41.42&#10;  Q 193.35 46.81 193.08 52.18&#10;  C 192.87 56.45 193.87 61.37 194.10 65.32&#10;  A 0.80 0.80 0.0 0 0 194.89 66.07&#10;  Q 199.17 66.11 202.35 64.82&#10;  A 1.15 1.14 86.0 0 0 203.03 64.03&#10;  C 204.19 59.22 205.95 53.68 204.00 50.93&#10;  Q 200.02 45.31 197.12 39.54&#10;  A 1.15 1.15 0.0 0 0 195.10 39.47"
    />
    <path
      stroke="#808080"
      d="&#10;  M 58.21 77.86&#10;  Q 55.07 77.97 51.55 80.95&#10;  A 0.83 0.83 0.0 0 0 51.37 82.00&#10;  L 53.50 85.69&#10;  A 0.70 0.70 0.0 0 0 54.54 85.89&#10;  Q 58.26 83.03 59.10 78.91&#10;  A 0.88 0.87 4.9 0 0 58.21 77.86"
    />
    <path
      stroke="#808080"
      d="&#10;  M 322.01 62.65&#10;  L 321.00 59.00&#10;  A 1.06 1.04 88.5 0 0 320.23 58.26&#10;  C 315.64 57.20 312.89 58.16 311.12 62.50&#10;  Q 309.70 66.00 313.17 69.56&#10;  A 1.33 1.32 44.7 0 0 315.07 69.56&#10;  C 317.44 67.09 319.54 64.54 320.87 64.11&#10;  Q 321.77 63.81 321.94 63.44&#10;  A 1.16 1.14 50.5 0 0 322.01 62.65"
    />
    <path
      stroke="#808080"
      d="&#10;  M 321.57 65.11&#10;  Q 320.87 65.01 320.25 65.28&#10;  A 0.25 0.24 -49.1 0 0 320.28 65.74&#10;  Q 321.02 65.95 321.66 65.57&#10;  A 0.25 0.25 0.0 0 0 321.57 65.11"
    />
  </g>
  <path
    fill="#ffffff"
    d="&#10;  M 670.74 0.00&#10;  Q 669.03 1.02 668.40 2.98&#10;  A 1.24 1.21 -51.9 0 0 668.51 3.98&#10;  L 670.73 7.82&#10;  A 2.48 2.46 45.2 0 1 670.73 10.27&#10;  L 664.52 21.02&#10;  A 1.58 1.56 2.8 0 1 663.77 21.69&#10;  Q 661.65 22.62 658.95 21.71&#10;  A 1.53 1.49 79.3 0 1 658.25 21.22&#10;  Q 656.34 18.88 652.80 19.09&#10;  A 1.79 1.79 0.0 0 1 651.21 18.30&#10;  C 649.26 15.40 647.39 13.08 645.90 10.33&#10;  C 644.86 8.41 640.99 6.02 639.14 8.73&#10;  Q 638.60 9.53 639.92 11.37&#10;  Q 640.69 12.45 641.27 15.49&#10;  A 2.05 2.01 -70.9 0 0 641.69 16.38&#10;  Q 645.63 21.15 644.45 26.46&#10;  A 4.29 4.19 -44.3 0 0 644.41 28.14&#10;  Q 644.88 30.92 645.07 37.14&#10;  Q 645.11 38.44 646.83 41.61&#10;  A 0.73 0.73 0.0 0 1 646.64 42.53&#10;  C 640.13 47.80 639.50 43.98 636.87 38.71&#10;  A 1.18 1.17 -12.1 0 0 635.87 38.07&#10;  L 632.49 37.91&#10;  A 1.19 1.19 0.0 0 0 631.24 39.04&#10;  L 630.55 53.67&#10;  A 0.46 0.45 -61.1 0 0 630.63 53.96&#10;  Q 630.93 54.43 632.92 57.41&#10;  Q 634.62 59.96 636.50 59.87&#10;  Q 639.02 59.73 640.00 57.43&#10;  Q 643.41 49.35 648.86 44.54&#10;  C 650.92 42.72 652.21 41.07 654.69 41.64&#10;  C 659.46 42.73 657.43 46.02 655.18 48.37&#10;  A 0.31 0.31 0.0 0 0 655.25 48.86&#10;  L 655.55 49.04&#10;  A 0.81 0.81 0.0 0 0 656.51 48.93&#10;  C 659.72 45.96 661.94 41.65 666.79 43.24&#10;  Q 671.72 44.86 674.43 46.27&#10;  A 1.04 1.04 0.0 0 1 674.99 47.19&#10;  C 675.01 50.87 670.75 51.10 667.58 51.37&#10;  A 0.89 0.89 0.0 0 0 666.88 51.82&#10;  Q 666.60 52.32 666.21 52.23&#10;  Q 665.68 52.09 665.20 52.25&#10;  Q 661.57 53.41 648.68 57.39&#10;  A 18.20 17.95 21.4 0 0 645.22 58.87&#10;  L 629.64 67.59&#10;  A 8.76 8.69 4.9 0 0 627.17 69.65&#10;  C 625.04 72.14 620.83 76.64 616.98 79.41&#10;  C 614.26 81.37 609.99 85.46 611.08 89.04&#10;  A 1.43 1.42 -84.4 0 0 611.77 89.89&#10;  Q 615.86 92.10 618.05 95.35&#10;  A 1.69 1.69 0.0 0 0 620.32 95.85&#10;  C 623.55 93.94 625.06 90.16 627.44 87.83&#10;  C 629.66 85.66 631.94 81.40 634.33 80.31&#10;  Q 638.65 78.34 646.45 74.29&#10;  C 652.18 71.31 658.94 68.97 663.39 67.52&#10;  A 11.09 10.82 20.0 0 0 665.63 66.51&#10;  Q 672.30 62.53 678.97 60.67&#10;  A 5.13 5.10 18.6 0 0 680.67 59.83&#10;  Q 685.53 56.16 689.87 51.89&#10;  Q 692.24 49.55 694.17 49.22&#10;  C 697.26 48.68 704.39 48.37 705.07 52.57&#10;  A 1.00 1.00 0.0 0 1 704.78 53.44&#10;  L 702.07 56.16&#10;  A 2.46 2.38 -81.5 0 1 701.56 56.55&#10;  L 687.43 64.71&#10;  A 0.48 0.24 -63.4 0 0 687.31 64.80&#10;  L 682.62 69.49&#10;  A 1.51 1.36 2.9 0 1 682.40 69.67&#10;  Q 678.45 72.15 674.91 72.81&#10;  A 4.09 4.09 0.0 0 1 673.41 72.81&#10;  L 671.46 72.45&#10;  A 0.92 0.81 41.4 0 0 671.09 72.45&#10;  L 662.70 74.37&#10;  A 0.77 0.77 0.0 0 0 662.10 75.08&#10;  L 661.96 78.09&#10;  A 0.87 0.87 0.0 0 0 663.32 78.86&#10;  Q 666.06 77.04 668.97 77.04&#10;  A 1.12 1.11 -16.7 0 1 669.90 77.54&#10;  C 671.73 80.25 669.58 83.30 667.77 86.24&#10;  A 2.49 2.44 5.0 0 1 666.53 87.26&#10;  L 657.31 90.62&#10;  A 1.70 1.35 -51.6 0 1 656.97 90.70&#10;  L 647.40 91.70&#10;  A 2.39 2.35 31.4 0 0 646.97 91.80&#10;  Q 645.43 92.32 639.79 94.05&#10;  Q 629.26 97.28 621.11 103.33&#10;  C 618.67 105.15 616.53 108.22 619.14 111.28&#10;  A 1.29 1.27 76.5 0 0 619.78 111.68&#10;  L 622.65 112.42&#10;  A 1.26 1.19 -11.5 0 1 623.29 112.82&#10;  Q 627.86 118.36 636.00 119.11&#10;  A 1.76 1.62 58.6 0 1 636.56 119.27&#10;  L 642.54 122.25&#10;  A 3.46 3.44 63.6 0 0 643.42 122.55&#10;  Q 647.18 123.24 648.04 123.69&#10;  Q 656.60 128.11 665.36 132.00&#10;  L 0.00 132.00&#10;  L 0.00 89.63&#10;  Q 9.06 90.46 10.08 99.75&#10;  Q 10.80 106.34 11.09 112.99&#10;  A 1.82 1.82 0.0 0 0 12.82 114.73&#10;  L 24.05 115.26&#10;  A 1.03 1.03 0.0 0 0 25.13 114.21&#10;  L 24.92 104.75&#10;  A 1.98 1.90 -60.5 0 0 24.70 103.89&#10;  L 22.29 99.42&#10;  A 2.28 2.25 41.3 0 1 22.16 97.55&#10;  L 23.24 94.62&#10;  A 1.28 1.23 -88.6 0 1 23.99 93.88&#10;  L 27.14 92.73&#10;  A 1.12 1.12 0.0 0 0 27.71 92.25&#10;  L 29.45 89.23&#10;  A 1.31 1.28 -84.5 0 1 30.14 88.65&#10;  L 36.22 86.44&#10;  A 0.80 0.78 58.4 0 1 37.07 86.65&#10;  C 41.18 91.10 44.13 94.84 48.72 95.40&#10;  A 1.36 1.36 0.0 0 1 49.68 97.52&#10;  Q 47.13 101.22 45.73 103.97&#10;  C 44.33 106.73 45.63 109.29 46.04 112.00&#10;  A 1.04 1.03 87.2 0 0 47.00 112.88&#10;  Q 54.70 113.31 57.48 112.45&#10;  A 0.41 0.40 82.6 0 1 58.00 112.86&#10;  Q 57.89 114.57 57.43 115.36&#10;  A 0.79 0.78 -68.0 0 0 57.92 116.52&#10;  Q 66.03 118.46 71.63 113.96&#10;  A 3.28 2.68 -30.9 0 0 72.81 110.70&#10;  Q 71.59 107.19 68.50 104.98&#10;  C 66.00 103.20 61.29 104.07 57.83 104.02&#10;  A 1.07 1.06 4.1 0 1 56.79 102.83&#10;  Q 57.10 100.32 58.99 97.98&#10;  C 62.42 93.72 65.44 90.20 67.91 85.13&#10;  Q 70.35 80.12 73.47 75.19&#10;  A 1.81 1.79 -2.0 0 1 73.99 74.64&#10;  L 75.30 73.72&#10;  A 1.35 1.33 -16.3 0 0 75.88 72.68&#10;  L 76.00 70.09&#10;  A 1.13 1.12 77.4 0 1 76.59 69.15&#10;  Q 82.93 65.75 90.33 65.16&#10;  A 2.30 2.29 -82.7 0 1 92.68 68.20&#10;  C 91.17 72.55 87.29 76.43 84.16 79.83&#10;  A 5.32 4.92 -12.3 0 0 83.35 80.99&#10;  C 80.67 86.22 75.08 87.64 72.22 93.48&#10;  A 1.74 1.73 49.3 0 0 72.13 94.76&#10;  Q 73.17 97.99 75.99 100.35&#10;  C 78.15 102.16 81.66 100.28 82.85 97.88&#10;  C 83.80 95.99 86.21 94.46 87.54 92.51&#10;  Q 92.52 85.16 96.84 80.31&#10;  A 8.90 8.83 77.2 0 0 98.44 77.75&#10;  Q 99.69 74.77 103.82 69.12&#10;  Q 108.71 62.42 102.92 57.83&#10;  C 99.91 55.45 99.46 52.92 94.55 54.71&#10;  Q 91.18 55.93 84.28 57.80&#10;  A 1.53 1.52 82.2 0 1 82.35 56.33&#10;  C 82.34 52.77 84.35 50.38 81.75 47.19&#10;  C 80.33 45.46 80.13 44.54 79.15 42.42&#10;  A 2.82 2.82 0.0 0 0 78.42 41.46&#10;  Q 76.64 39.95 74.64 39.29&#10;  A 2.02 2.02 0.0 0 0 72.07 41.76&#10;  C 73.66 47.33 72.31 50.11 70.12 55.77&#10;  Q 67.33 62.95 65.90 65.95&#10;  Q 65.00 67.83 63.37 70.02&#10;  A 2.30 2.29 -73.0 0 1 61.63 70.95&#10;  L 57.11 71.16&#10;  A 1.34 1.33 -66.5 0 0 56.30 71.48&#10;  Q 52.86 74.38 47.17 74.09&#10;  A 2.06 2.04 -2.7 0 1 45.25 72.36&#10;  Q 44.38 66.80 40.54 62.49&#10;  C 37.85 59.47 35.44 63.42 34.34 65.47&#10;  A 1.20 1.19 -44.7 0 0 34.33 66.57&#10;  C 36.25 70.42 38.99 74.83 37.82 79.28&#10;  A 2.41 2.39 83.6 0 1 36.62 80.79&#10;  Q 29.64 84.46 26.15 85.88&#10;  Q 21.52 87.77 15.76 87.87&#10;  Q 14.28 87.89 9.64 86.73&#10;  Q 4.80 85.51 0.00 86.32&#10;  L 0.00 0.00&#10;  L 670.74 0.00&#10;  Z&#10;  M 251.70 66.71&#10;  Q 254.26 65.43 255.22 64.22&#10;  C 260.35 57.73 267.14 51.28 271.52 44.52&#10;  C 272.53 42.95 273.90 42.13 274.80 40.72&#10;  Q 275.31 39.94 277.19 37.81&#10;  Q 282.51 31.78 283.65 29.66&#10;  C 289.19 19.31 279.33 17.95 273.77 13.53&#10;  A 1.70 1.68 68.5 0 0 272.98 13.18&#10;  C 269.04 12.57 266.08 15.01 267.06 19.36&#10;  A 0.73 0.72 -4.7 0 0 267.73 19.92&#10;  L 271.31 20.09&#10;  A 0.80 0.79 -88.9 0 1 272.07 20.89&#10;  Q 272.05 24.27 270.53 28.05&#10;  Q 266.30 38.63 265.54 40.31&#10;  C 264.02 43.68 261.20 46.63 259.34 49.43&#10;  C 255.79 54.77 253.20 59.15 250.65 62.44&#10;  Q 249.13 64.40 250.82 66.51&#10;  A 0.71 0.71 0.0 0 0 251.70 66.71&#10;  Z&#10;  M 439.97 20.38&#10;  L 434.73 13.51&#10;  A 0.96 0.96 0.0 0 0 433.44 13.29&#10;  Q 428.47 16.51 426.97 17.96&#10;  Q 424.43 20.44 421.20 26.13&#10;  C 420.67 27.06 419.79 27.83 419.99 29.13&#10;  A 1.45 1.14 -11.0 0 0 421.67 29.99&#10;  C 423.29 29.64 425.93 28.62 427.74 27.47&#10;  Q 433.20 24.00 439.53 21.84&#10;  A 0.94 0.94 0.0 0 0 439.97 20.38&#10;  Z&#10;  M 534.30 85.27&#10;  Q 534.18 85.52 531.93 90.05&#10;  C 530.46 93.02 526.25 98.71 522.75 99.34&#10;  A 0.66 0.65 -2.9 0 0 522.21 99.93&#10;  Q 522.09 101.39 521.23 102.26&#10;  A 1.68 1.68 0.0 0 1 520.28 102.76&#10;  Q 515.02 103.59 510.20 105.00&#10;  C 507.18 105.88 502.78 105.76 499.53 107.74&#10;  A 1.11 1.11 0.0 0 0 499.89 109.78&#10;  L 508.78 111.59&#10;  A 4.23 4.17 -43.0 0 0 510.19 111.63&#10;  C 519.67 110.30 526.35 109.26 533.25 104.74&#10;  C 534.32 104.04 535.57 103.81 536.32 103.01&#10;  A 2.26 2.15 76.0 0 0 536.84 102.09&#10;  Q 537.47 99.81 538.33 98.94&#10;  A 0.78 0.76 54.3 0 0 538.47 98.05&#10;  Q 537.91 96.97 538.13 96.42&#10;  Q 539.72 92.39 540.28 88.77&#10;  A 1.39 1.36 -13.4 0 1 540.86 87.85&#10;  Q 542.94 86.44 544.34 88.48&#10;  Q 548.22 94.11 556.23 109.50&#10;  Q 561.46 119.55 573.63 117.87&#10;  A 2.61 2.54 -69.9 0 0 575.06 117.18&#10;  L 583.55 109.05&#10;  A 10.05 9.99 -81.6 0 1 585.46 107.62&#10;  Q 588.61 105.81 591.22 103.91&#10;  Q 592.40 103.05 591.91 101.59&#10;  A 0.68 0.67 -17.0 0 0 591.08 101.16&#10;  C 585.67 102.71 579.63 104.58 573.52 103.49&#10;  Q 563.92 101.80 557.69 95.33&#10;  Q 553.52 91.00 549.61 86.15&#10;  Q 548.99 85.38 546.97 83.86&#10;  A 1.77 1.73 8.3 0 1 546.39 83.10&#10;  Q 545.41 80.63 546.09 77.88&#10;  A 1.33 1.32 -7.4 0 1 546.75 77.03&#10;  Q 551.96 74.28 557.36 73.87&#10;  A 3.23 3.17 21.5 0 0 559.27 73.06&#10;  Q 561.28 71.25 563.63 70.44&#10;  C 566.89 69.30 570.80 67.44 572.76 66.18&#10;  Q 576.35 63.88 574.66 59.53&#10;  A 1.33 1.31 -1.8 0 0 573.83 58.76&#10;  Q 569.11 57.24 564.61 58.25&#10;  A 1.98 1.97 4.2 0 0 563.19 59.47&#10;  L 561.09 64.83&#10;  A 4.29 4.09 -13.5 0 1 560.16 66.27&#10;  Q 555.18 71.35 547.67 71.10&#10;  A 0.78 0.77 7.8 0 1 546.94 70.14&#10;  Q 549.69 59.06 553.71 49.69&#10;  A 2.46 2.39 -30.2 0 0 553.83 49.26&#10;  L 556.77 32.52&#10;  A 4.35 4.34 37.4 0 0 556.42 29.91&#10;  Q 555.21 27.34 555.09 25.17&#10;  C 554.93 22.37 553.86 21.22 551.86 19.16&#10;  Q 548.30 15.51 546.73 14.45&#10;  A 3.14 3.11 50.5 0 0 543.74 14.15&#10;  L 541.91 14.93&#10;  A 1.08 1.07 -35.5 0 0 541.61 16.71&#10;  Q 545.15 19.92 545.68 23.07&#10;  Q 546.79 29.70 545.71 42.38&#10;  A 6.29 6.26 -32.6 0 1 545.34 44.05&#10;  Q 542.22 52.44 541.41 61.17&#10;  Q 541.08 64.59 539.80 66.87&#10;  A 3.26 3.22 -26.2 0 0 539.44 67.91&#10;  C 538.79 72.06 537.74 75.74 532.81 76.61&#10;  Q 523.00 78.34 522.82 78.38&#10;  A 19.18 18.85 27.7 0 0 519.80 79.29&#10;  L 511.53 82.56&#10;  A 3.29 3.28 -59.1 0 1 510.66 82.78&#10;  Q 507.88 83.09 503.24 83.03&#10;  Q 500.27 82.99 499.48 85.79&#10;  C 498.78 88.26 500.24 91.09 502.73 92.26&#10;  Q 506.51 94.02 509.82 92.27&#10;  Q 517.85 88.02 519.61 87.66&#10;  A 5.92 5.87 22.6 0 0 521.58 86.86&#10;  Q 524.85 84.79 526.69 83.90&#10;  Q 528.87 82.85 532.54 82.63&#10;  A 1.83 1.83 0.0 0 1 534.30 85.27&#10;  Z&#10;  M 87.21 41.21&#10;  C 89.25 39.32 90.61 38.82 93.59 38.09&#10;  A 12.05 12.00 23.1 0 0 96.64 36.87&#10;  Q 104.19 32.52 105.56 31.55&#10;  Q 106.81 30.66 108.61 27.11&#10;  A 1.42 1.39 -86.4 0 1 109.37 26.43&#10;  L 111.01 25.81&#10;  A 1.67 1.67 0.0 0 0 111.91 23.49&#10;  Q 107.95 15.78 98.49 14.96&#10;  Q 96.72 14.80 92.71 15.69&#10;  A 2.99 2.94 -45.5 0 1 91.63 15.71&#10;  L 90.89 15.58&#10;  A 1.56 1.54 -51.7 0 0 90.00 15.69&#10;  Q 80.66 19.99 67.58 24.50&#10;  Q 64.99 25.40 63.35 25.80&#10;  Q 60.25 26.55 54.29 29.02&#10;  Q 50.87 30.44 43.25 31.90&#10;  C 41.10 32.32 38.86 33.21 37.19 33.57&#10;  A 8.69 8.63 41.2 0 1 34.48 33.74&#10;  C 30.02 33.32 24.84 32.30 22.42 34.01&#10;  Q 21.69 34.54 21.03 34.72&#10;  A 1.93 1.89 -45.6 0 1 20.05 34.74&#10;  Q 15.24 33.56 10.82 32.61&#10;  C 7.62 31.93 2.98 33.76 5.94 37.81&#10;  Q 12.44 46.67 13.26 48.26&#10;  Q 14.83 51.31 18.11 53.14&#10;  C 23.19 55.98 25.66 51.29 29.87 49.25&#10;  Q 44.25 42.29 59.07 38.46&#10;  A 3.86 3.61 23.7 0 0 59.78 38.21&#10;  L 61.91 37.20&#10;  A 4.10 3.89 23.3 0 1 62.64 36.93&#10;  L 76.12 33.20&#10;  A 2.51 1.91 26.1 0 1 76.43 33.14&#10;  L 83.06 32.38&#10;  A 1.58 1.57 13.4 0 1 84.56 34.81&#10;  Q 83.01 37.15 82.94 40.07&#10;  A 0.89 0.89 0.0 0 0 83.68 40.97&#10;  L 86.41 41.45&#10;  A 0.93 0.93 0.0 0 0 87.21 41.21&#10;  Z&#10;  M 158.54 93.32&#10;  A 0.68 0.68 0.0 0 1 159.44 93.82&#10;  Q 160.29 97.94 162.34 100.65&#10;  A 1.05 1.05 0.0 0 0 163.22 101.07&#10;  C 165.82 100.95 167.10 97.83 168.37 96.60&#10;  A 1.45 1.39 72.5 0 0 168.80 95.73&#10;  C 169.36 90.97 168.10 85.21 168.45 79.41&#10;  C 169.04 69.66 168.83 64.28 170.30 55.70&#10;  Q 171.03 51.42 171.41 44.25&#10;  Q 171.74 38.00 175.14 33.65&#10;  A 3.64 3.62 -38.4 0 0 175.58 29.89&#10;  Q 174.52 27.60 172.68 26.13&#10;  Q 167.29 21.83 165.71 20.35&#10;  A 1.02 1.02 0.0 0 0 164.69 20.12&#10;  C 160.43 21.56 162.73 26.52 162.81 29.76&#10;  Q 162.88 32.41 162.85 32.76&#10;  C 161.44 46.00 160.42 59.76 160.89 73.10&#10;  C 161.10 79.28 160.18 83.75 159.95 89.21&#10;  A 0.66 0.66 0.0 0 1 159.28 89.84&#10;  C 153.99 89.72 152.40 92.35 149.01 95.30&#10;  A 3.27 3.20 18.4 0 1 147.56 96.01&#10;  C 145.06 96.54 143.54 98.25 141.40 99.21&#10;  Q 134.97 102.09 133.95 102.71&#10;  Q 130.72 104.66 132.89 108.06&#10;  C 135.78 112.57 147.05 111.89 148.85 106.59&#10;  C 149.76 103.91 150.29 103.25 151.22 100.79&#10;  C 152.74 96.82 154.70 94.70 158.54 93.32&#10;  Z&#10;  M 384.23 36.10&#10;  L 382.13 36.00&#10;  A 1.19 1.19 0.0 0 1 381.02 34.61&#10;  L 382.03 28.87&#10;  A 2.45 2.45 0.0 0 0 380.73 26.27&#10;  L 380.42 26.11&#10;  A 1.68 1.67 -71.6 0 0 377.97 27.34&#10;  Q 377.37 31.44 374.10 32.16&#10;  A 1.30 1.30 0.0 0 0 373.21 32.85&#10;  L 370.11 39.09&#10;  A 0.10 0.08 -38.0 0 0 370.10 39.13&#10;  Q 369.91 40.62 372.51 45.63&#10;  Q 374.78 50.00 379.37 48.82&#10;  A 1.73 1.72 -0.6 0 0 380.62 47.55&#10;  L 381.27 44.87&#10;  A 2.41 2.25 74.4 0 1 381.78 43.89&#10;  C 384.40 40.90 385.42 40.44 384.93 36.74&#10;  A 0.73 0.73 0.0 0 0 384.23 36.10&#10;  Z&#10;  M 393.28 32.06&#10;  Q 396.02 31.71 398.46 33.09&#10;  A 2.11 2.09 -87.0 0 1 399.36 34.10&#10;  L 401.26 38.55&#10;  A 2.38 2.38 0.0 0 0 403.93 39.95&#10;  Q 407.00 39.32 407.97 36.20&#10;  Q 409.25 32.12 410.99 27.34&#10;  A 0.98 0.98 0.0 0 0 410.21 26.04&#10;  C 408.63 25.82 407.00 26.15 405.37 27.03&#10;  Q 403.79 27.89 403.06 27.90&#10;  Q 398.25 27.99 395.74 28.25&#10;  A 3.80 3.80 0.0 0 0 392.84 30.13&#10;  L 392.45 30.81&#10;  A 0.84 0.84 0.0 0 0 393.28 32.06&#10;  Z&#10;  M 296.66 45.85&#10;  L 302.99 46.15&#10;  A 2.18 2.17 2.9 0 1 305.06 48.43&#10;  L 304.93 51.22&#10;  A 0.78 0.77 -11.5 0 0 306.04 51.95&#10;  Q 319.74 45.44 328.61 33.79&#10;  A 1.26 1.25 59.3 0 0 328.85 32.82&#10;  Q 328.60 31.37 327.37 29.91&#10;  C 325.70 27.93 323.42 29.25 321.23 30.48&#10;  Q 315.05 33.97 313.31 36.71&#10;  A 2.44 2.42 -83.5 0 1 312.07 37.70&#10;  Q 309.23 38.71 307.54 40.56&#10;  A 2.86 2.71 8.8 0 1 306.53 41.26&#10;  C 303.05 42.67 299.30 41.52 296.16 44.51&#10;  A 0.78 0.78 0.0 0 0 296.66 45.85&#10;  Z&#10;  M 192.90 86.83&#10;  Q 193.23 83.22 194.48 80.70&#10;  A 1.58 1.58 0.0 0 0 194.58 79.54&#10;  C 193.55 76.10 193.55 73.12 196.44 70.58&#10;  A 2.09 2.05 17.1 0 1 197.37 70.10&#10;  Q 204.23 68.55 205.57 68.08&#10;  C 208.84 66.93 210.92 61.98 211.71 59.07&#10;  A 3.90 3.88 41.0 0 0 211.53 56.53&#10;  L 206.11 43.81&#10;  A 3.02 2.92 13.1 0 0 205.56 42.96&#10;  Q 203.95 41.22 202.90 37.78&#10;  C 201.87 34.39 198.63 29.51 194.36 31.27&#10;  A 1.26 1.25 89.0 0 0 193.65 32.01&#10;  C 192.30 35.60 188.72 39.75 187.89 44.05&#10;  Q 187.20 47.60 187.44 50.20&#10;  C 187.92 55.39 187.17 60.00 186.88 64.65&#10;  A 3.24 3.23 -16.7 0 1 185.58 67.05&#10;  C 182.93 69.04 179.11 71.10 180.04 73.43&#10;  A 0.94 0.93 74.4 0 0 181.04 74.00&#10;  Q 185.24 73.40 185.07 77.70&#10;  Q 184.86 82.98 183.94 88.72&#10;  Q 183.73 90.01 184.26 91.57&#10;  A 1.76 1.75 -82.6 0 0 184.91 92.42&#10;  Q 187.41 94.15 192.31 95.42&#10;  Q 194.88 96.09 198.30 98.51&#10;  A 1.15 1.15 0.0 0 0 199.28 98.68&#10;  C 204.15 97.34 217.08 94.19 214.90 88.74&#10;  C 213.37 84.93 204.60 85.78 201.44 86.45&#10;  Q 200.70 86.61 196.68 88.54&#10;  A 1.62 1.60 34.5 0 1 195.79 88.70&#10;  Q 194.17 88.53 193.26 87.73&#10;  A 1.07 1.06 23.4 0 1 192.90 86.83&#10;  Z&#10;  M 422.66 77.36&#10;  Q 426.09 78.08 427.21 80.25&#10;  A 1.20 1.18 77.2 0 0 428.21 80.89&#10;  L 432.05 81.07&#10;  A 0.98 0.97 1.4 0 0 433.08 80.10&#10;  Q 433.10 75.32 431.30 70.72&#10;  A 0.99 0.98 55.7 0 1 431.49 69.70&#10;  Q 431.84 69.31 431.93 68.94&#10;  A 0.42 0.42 0.0 0 0 431.41 68.43&#10;  L 430.64 68.65&#10;  A 0.76 0.75 61.7 0 1 429.88 68.42&#10;  C 429.02 67.47 428.50 66.62 429.36 65.44&#10;  Q 430.88 63.35 431.48 62.97&#10;  Q 433.71 61.55 439.56 56.07&#10;  C 444.03 51.88 441.40 50.01 438.59 45.45&#10;  A 1.06 1.05 74.2 0 0 437.69 44.94&#10;  C 433.66 44.96 433.76 47.23 431.47 48.68&#10;  A 2.19 2.12 27.0 0 1 430.39 49.01&#10;  Q 426.86 49.13 425.13 50.45&#10;  A 0.62 0.61 40.9 0 0 425.21 51.47&#10;  C 427.41 52.71 428.94 55.12 427.05 57.49&#10;  Q 425.72 59.17 425.95 61.94&#10;  A 0.78 0.77 80.1 0 1 425.39 62.75&#10;  L 423.65 63.23&#10;  A 0.91 0.88 8.5 0 0 423.16 63.58&#10;  C 421.31 66.28 422.14 69.40 423.80 71.67&#10;  A 0.30 0.30 0.0 0 1 423.45 72.13&#10;  C 419.58 70.73 418.80 66.82 418.99 63.07&#10;  A 1.12 1.12 0.0 0 0 417.58 61.93&#10;  L 416.53 62.22&#10;  A 1.94 1.92 83.8 0 0 415.12 63.99&#10;  L 414.90 68.68&#10;  A 4.97 4.84 59.8 0 1 414.44 70.52&#10;  Q 411.48 76.81 411.10 84.02&#10;  Q 410.60 93.37 411.08 102.63&#10;  A 0.41 0.41 0.0 0 0 411.20 102.92&#10;  L 416.29 108.01&#10;  A 3.45 3.43 56.7 0 0 419.96 108.78&#10;  Q 424.91 106.84 430.56 106.54&#10;  Q 439.40 106.07 457.80 104.81&#10;  A 2.70 2.70 0.0 0 0 459.99 103.41&#10;  C 462.45 98.86 462.75 93.75 460.95 88.79&#10;  Q 459.98 86.12 459.82 84.50&#10;  A 3.67 3.65 -64.6 0 0 459.25 82.88&#10;  C 457.62 80.39 458.10 77.27 457.70 74.77&#10;  A 5.66 5.65 -84.2 0 0 454.13 70.38&#10;  L 454.10 70.37&#10;  A 2.26 2.26 0.0 0 0 451.03 72.53&#10;  Q 451.08 75.14 451.57 77.67&#10;  C 452.27 81.29 450.94 83.91 451.46 87.61&#10;  C 451.96 91.13 451.68 94.81 447.29 94.83&#10;  C 441.98 94.86 436.04 95.15 431.41 96.74&#10;  Q 427.70 98.01 424.61 98.65&#10;  A 2.13 2.12 -6.7 0 1 422.05 96.64&#10;  Q 421.82 89.48 421.05 82.56&#10;  Q 420.94 81.58 422.04 77.74&#10;  A 0.54 0.53 -75.9 0 1 422.66 77.36&#10;  Z&#10;  M 269.69 80.85&#10;  L 274.37 81.07&#10;  A 0.52 0.52 0.0 0 1 274.83 81.77&#10;  Q 273.63 84.93 274.03 88.41&#10;  A 2.96 2.94 -78.4 0 0 275.48 90.63&#10;  L 279.48 92.94&#10;  A 0.89 0.89 0.0 0 0 280.39 92.92&#10;  Q 282.51 91.60 282.70 90.37&#10;  Q 283.37 86.04 284.27 84.88&#10;  A 1.84 1.81 60.8 0 0 284.64 83.54&#10;  L 283.73 75.91&#10;  A 1.12 1.12 0.0 0 0 282.85 74.94&#10;  Q 281.68 74.76 282.11 72.05&#10;  A 0.96 0.96 0.0 0 1 282.54 71.40&#10;  Q 283.97 70.47 284.59 67.60&#10;  A 0.84 0.83 -65.9 0 0 284.27 66.74&#10;  Q 283.56 66.23 282.88 64.74&#10;  A 1.26 1.26 0.0 0 0 281.78 64.00&#10;  L 280.43 63.93&#10;  A 0.34 0.34 0.0 0 1 280.23 63.32&#10;  Q 281.56 62.25 282.28 59.76&#10;  A 2.05 2.03 78.9 0 1 282.98 58.71&#10;  L 284.21 57.73&#10;  A 1.43 1.43 0.0 0 0 284.72 56.98&#10;  L 285.85 53.00&#10;  A 1.74 1.62 -43.0 0 0 285.90 52.30&#10;  C 285.39 48.86 281.12 46.22 278.36 49.15&#10;  Q 271.04 56.91 261.73 63.69&#10;  Q 260.61 64.51 258.56 67.24&#10;  A 1.48 1.47 55.2 0 0 258.33 68.54&#10;  L 258.70 69.72&#10;  A 3.57 3.56 -47.3 0 1 258.77 71.52&#10;  C 257.70 76.35 259.21 82.18 255.39 86.07&#10;  C 252.10 89.42 252.82 92.14 253.49 96.82&#10;  Q 253.90 99.66 255.39 100.62&#10;  Q 259.41 103.18 264.23 102.91&#10;  A 1.78 1.77 -1.6 0 0 265.90 101.15&#10;  Q 265.93 94.81 266.08 78.41&#10;  C 266.09 76.67 266.96 74.97 265.57 73.30&#10;  Q 263.54 70.88 262.48 69.18&#10;  A 1.10 1.09 64.0 0 1 263.03 67.57&#10;  Q 265.85 66.55 267.78 64.83&#10;  A 2.46 2.46 0.0 0 1 271.54 65.44&#10;  L 276.60 74.21&#10;  A 0.57 0.56 64.2 0 1 276.32 75.02&#10;  C 273.54 76.10 270.21 77.05 269.34 80.38&#10;  A 0.38 0.37 8.6 0 0 269.69 80.85&#10;  Z&#10;  M 400.22 62.54&#10;  A 0.82 0.82 0.0 0 1 401.01 63.76&#10;  Q 399.03 67.29 398.84 70.29&#10;  A 0.53 0.52 -9.9 0 0 399.57 70.80&#10;  Q 403.98 68.95 405.44 64.41&#10;  A 2.17 2.07 78.0 0 1 405.95 63.58&#10;  L 407.51 62.02&#10;  A 1.57 1.57 0.0 0 0 407.03 59.47&#10;  Q 403.79 58.04 400.56 59.08&#10;  A 1.23 1.22 -13.0 0 1 398.98 58.10&#10;  Q 398.23 53.10 397.52 50.03&#10;  Q 397.18 48.57 396.28 48.16&#10;  A 2.76 2.44 25.0 0 0 392.76 49.20&#10;  Q 391.85 51.13 391.94 54.36&#10;  A 0.75 0.75 0.0 0 1 391.15 55.13&#10;  L 387.93 54.98&#10;  A 0.99 0.98 -21.0 0 0 387.18 56.66&#10;  L 390.34 59.83&#10;  A 2.42 2.41 -51.6 0 1 390.68 62.83&#10;  L 387.85 67.31&#10;  A 1.13 1.13 0.0 0 1 387.02 67.83&#10;  Q 386.42 67.93 383.41 69.62&#10;  Q 381.33 70.78 377.77 70.98&#10;  C 374.92 71.15 374.05 72.20 372.35 74.14&#10;  A 1.52 1.50 64.7 0 0 371.97 75.22&#10;  C 372.16 78.87 375.82 79.35 378.96 78.95&#10;  A 0.96 0.95 4.1 0 0 379.76 78.26&#10;  L 380.26 76.48&#10;  A 1.57 1.50 76.6 0 1 380.65 75.81&#10;  L 384.35 72.12&#10;  A 1.89 1.88 53.1 0 1 387.34 72.55&#10;  Q 388.59 74.84 386.74 75.54&#10;  C 382.43 77.18 387.60 81.08 385.52 83.99&#10;  A 2.30 2.30 0.0 0 1 384.33 84.85&#10;  Q 378.46 86.63 374.87 92.17&#10;  A 5.26 5.26 0.0 0 1 373.89 93.29&#10;  C 371.25 95.61 369.99 97.61 365.83 99.28&#10;  A 1.16 1.12 -0.3 0 0 365.22 99.88&#10;  Q 363.95 102.82 364.07 103.74&#10;  C 364.54 107.42 366.69 107.08 369.57 107.08&#10;  Q 371.23 107.08 372.09 106.30&#10;  Q 376.53 102.23 378.93 100.13&#10;  A 1.23 1.22 66.9 0 1 380.96 100.95&#10;  Q 381.17 103.44 380.72 105.74&#10;  C 379.82 110.35 382.45 113.57 385.29 117.52&#10;  A 3.27 3.27 0.0 0 0 388.28 118.85&#10;  L 389.11 118.77&#10;  A 1.77 1.77 0.0 0 0 390.47 116.16&#10;  Q 387.90 111.50 389.93 106.13&#10;  Q 391.98 100.74 394.03 95.30&#10;  Q 395.05 92.61 397.52 91.28&#10;  A 0.90 0.70 20.9 0 1 397.81 91.19&#10;  L 403.63 90.45&#10;  A 1.59 1.58 -2.4 0 0 405.02 88.95&#10;  Q 405.29 83.66 402.68 80.01&#10;  A 0.73 0.72 42.4 0 1 402.64 79.23&#10;  L 404.36 76.25&#10;  A 1.47 1.46 -85.2 0 0 402.58 74.14&#10;  Q 399.08 75.45 396.52 73.89&#10;  A 1.11 1.11 0.0 0 1 396.04 72.61&#10;  Q 397.22 68.86 397.06 64.01&#10;  A 1.22 1.22 0.0 0 1 398.15 62.76&#10;  L 400.22 62.54&#10;  Z&#10;  M 302.33 73.58&#10;  Q 303.58 75.37 303.27 77.28&#10;  Q 303.19 77.75 300.83 86.89&#10;  A 3.59 3.55 51.8 0 0 300.71 87.95&#10;  Q 301.11 101.63 300.96 105.77&#10;  Q 300.71 112.45 304.51 117.76&#10;  A 0.80 0.80 0.0 0 0 305.63 117.94&#10;  C 309.01 115.53 309.68 106.08 309.87 101.20&#10;  Q 310.31 89.42 312.11 78.75&#10;  A 0.90 0.88 88.1 0 1 312.77 78.03&#10;  C 318.65 76.49 319.46 74.23 321.39 68.50&#10;  A 1.83 1.81 81.9 0 1 322.06 67.60&#10;  L 323.67 66.46&#10;  A 0.90 0.80 -4.8 0 0 323.87 66.25&#10;  L 328.68 59.00&#10;  A 0.78 0.78 0.0 0 0 328.58 58.02&#10;  C 325.27 54.72 322.91 53.47 318.00 54.43&#10;  Q 312.59 55.50 307.23 54.55&#10;  A 0.77 0.73 -46.5 0 0 306.85 54.57&#10;  L 302.48 56.02&#10;  A 0.71 0.71 0.0 0 0 302.04 56.94&#10;  L 303.41 60.70&#10;  A 1.08 1.07 -43.1 0 1 303.38 61.51&#10;  L 300.99 67.08&#10;  A 1.15 1.07 -9.3 0 1 300.65 67.52&#10;  Q 297.91 69.69 294.69 70.63&#10;  C 291.88 71.44 290.83 72.30 290.17 74.83&#10;  A 1.52 1.51 18.0 0 0 291.09 76.62&#10;  C 295.10 78.18 298.27 74.96 301.32 73.34&#10;  A 0.78 0.78 0.0 0 1 302.33 73.58&#10;  Z&#10;  M 145.83 95.68&#10;  Q 149.84 89.97 155.38 80.12&#10;  Q 157.00 77.25 155.00 73.85&#10;  A 1.24 1.24 0.0 0 0 154.16 73.27&#10;  L 151.18 72.75&#10;  A 2.08 1.86 62.2 0 1 150.53 72.51&#10;  Q 146.26 69.99 141.33 71.37&#10;  A 2.18 2.02 66.5 0 0 140.23 74.51&#10;  Q 141.17 76.12 143.22 77.10&#10;  A 1.15 1.15 0.0 0 1 143.85 78.00&#10;  Q 144.64 85.80 143.17 92.57&#10;  A 1.24 1.23 -50.0 0 0 143.23 93.29&#10;  L 144.18 95.51&#10;  A 0.95 0.95 0.0 0 0 145.83 95.68&#10;  Z"
  />
  <path
    fill="#000000"
    d="&#10;  M 671.90 0.00&#10;  Q 675.43 2.51 679.88 3.61&#10;  Q 682.11 4.16 682.88 6.33&#10;  C 684.84 11.85 679.59 14.56 675.27 16.08&#10;  A 4.20 4.13 12.6 0 0 673.73 17.04&#10;  C 671.37 19.35 669.69 20.58 669.10 22.85&#10;  A 1.69 1.50 12.1 0 0 670.49 24.74&#10;  C 673.95 25.36 680.48 20.42 683.09 18.06&#10;  Q 688.05 13.57 693.88 10.11&#10;  A 6.65 6.54 24.2 0 1 696.12 9.28&#10;  C 699.49 8.67 702.72 7.00 706.09 6.97&#10;  Q 711.62 6.92 714.00 10.53&#10;  L 714.00 14.14&#10;  Q 709.94 18.58 705.60 23.11&#10;  Q 704.65 24.10 703.01 29.87&#10;  A 8.17 8.12 69.1 0 1 702.06 32.01&#10;  L 695.71 42.14&#10;  A 1.63 1.49 -8.7 0 1 695.50 42.40&#10;  L 694.07 43.83&#10;  A 2.11 2.11 0.0 0 0 695.93 47.40&#10;  Q 697.01 47.21 701.04 46.84&#10;  Q 707.61 46.24 709.94 52.04&#10;  A 1.70 1.70 0.0 0 1 709.35 54.06&#10;  Q 707.73 55.23 706.33 57.03&#10;  A 4.60 4.41 -1.5 0 1 705.52 57.85&#10;  C 702.27 60.45 696.89 64.41 692.51 64.92&#10;  C 690.28 65.17 688.87 66.55 686.69 67.24&#10;  A 2.62 2.56 -75.7 0 0 685.64 67.88&#10;  L 682.76 70.77&#10;  A 1.64 1.57 -14.0 0 0 682.38 71.37&#10;  L 680.94 75.64&#10;  A 6.54 6.45 71.2 0 1 680.24 77.09&#10;  L 676.16 83.40&#10;  A 0.37 0.37 0.0 0 0 676.37 83.96&#10;  C 679.67 84.88 681.49 83.87 684.83 83.00&#10;  A 1.93 1.93 0.0 0 1 686.01 83.06&#10;  Q 687.67 83.71 688.65 85.12&#10;  C 691.59 89.37 693.24 92.55 696.02 94.08&#10;  A 1.99 1.99 0.0 0 1 695.76 97.68&#10;  Q 695.23 97.88 694.53 97.94&#10;  Q 686.77 98.59 675.00 96.03&#10;  A 2.08 2.07 -69.4 0 0 672.74 97.06&#10;  Q 672.37 97.73 672.15 99.42&#10;  A 2.67 2.55 -47.7 0 0 672.17 100.27&#10;  C 672.65 103.01 673.03 104.93 672.60 107.92&#10;  Q 672.01 112.02 672.76 115.57&#10;  Q 673.26 117.99 672.43 120.49&#10;  Q 671.07 124.55 670.85 128.78&#10;  Q 670.76 130.59 668.50 132.00&#10;  L 665.36 132.00&#10;  Q 656.60 128.11 648.04 123.69&#10;  Q 647.18 123.24 643.42 122.55&#10;  A 3.46 3.44 63.6 0 1 642.54 122.25&#10;  L 636.56 119.27&#10;  A 1.76 1.62 58.6 0 0 636.00 119.11&#10;  Q 627.86 118.36 623.29 112.82&#10;  A 1.26 1.19 -11.5 0 0 622.65 112.42&#10;  L 619.78 111.68&#10;  A 1.29 1.27 76.5 0 1 619.14 111.28&#10;  C 616.53 108.22 618.67 105.15 621.11 103.33&#10;  Q 629.26 97.28 639.79 94.05&#10;  Q 645.43 92.32 646.97 91.80&#10;  A 2.39 2.35 31.4 0 1 647.40 91.70&#10;  L 656.97 90.70&#10;  A 1.70 1.35 -51.6 0 0 657.31 90.62&#10;  L 666.53 87.26&#10;  A 2.49 2.44 5.0 0 0 667.77 86.24&#10;  C 669.58 83.30 671.73 80.25 669.90 77.54&#10;  A 1.12 1.11 -16.7 0 0 668.97 77.04&#10;  Q 666.06 77.04 663.32 78.86&#10;  A 0.87 0.87 0.0 0 1 661.96 78.09&#10;  L 662.10 75.08&#10;  A 0.77 0.77 0.0 0 1 662.70 74.37&#10;  L 671.09 72.45&#10;  A 0.92 0.81 41.4 0 1 671.46 72.45&#10;  L 673.41 72.81&#10;  A 4.09 4.09 0.0 0 0 674.91 72.81&#10;  Q 678.45 72.15 682.40 69.67&#10;  A 1.51 1.36 2.9 0 0 682.62 69.49&#10;  L 687.31 64.80&#10;  A 0.48 0.24 -63.4 0 1 687.43 64.71&#10;  L 701.56 56.55&#10;  A 2.46 2.38 -81.5 0 0 702.07 56.16&#10;  L 704.78 53.44&#10;  A 1.00 1.00 0.0 0 0 705.07 52.57&#10;  C 704.39 48.37 697.26 48.68 694.17 49.22&#10;  Q 692.24 49.55 689.87 51.89&#10;  Q 685.53 56.16 680.67 59.83&#10;  A 5.13 5.10 18.6 0 1 678.97 60.67&#10;  Q 672.30 62.53 665.63 66.51&#10;  A 11.09 10.82 20.0 0 1 663.39 67.52&#10;  C 658.94 68.97 652.18 71.31 646.45 74.29&#10;  Q 638.65 78.34 634.33 80.31&#10;  C 631.94 81.40 629.66 85.66 627.44 87.83&#10;  C 625.06 90.16 623.55 93.94 620.32 95.85&#10;  A 1.69 1.69 0.0 0 1 618.05 95.35&#10;  Q 615.86 92.10 611.77 89.89&#10;  A 1.43 1.42 -84.4 0 1 611.08 89.04&#10;  C 609.99 85.46 614.26 81.37 616.98 79.41&#10;  C 620.83 76.64 625.04 72.14 627.17 69.65&#10;  A 8.76 8.69 4.9 0 1 629.64 67.59&#10;  L 645.22 58.87&#10;  A 18.20 17.95 21.4 0 1 648.68 57.39&#10;  Q 661.57 53.41 665.20 52.25&#10;  Q 665.68 52.09 666.21 52.23&#10;  Q 666.60 52.32 666.88 51.82&#10;  A 0.89 0.89 0.0 0 1 667.58 51.37&#10;  C 670.75 51.10 675.01 50.87 674.99 47.19&#10;  A 1.04 1.04 0.0 0 0 674.43 46.27&#10;  Q 671.72 44.86 666.79 43.24&#10;  C 661.94 41.65 659.72 45.96 656.51 48.93&#10;  A 0.81 0.81 0.0 0 1 655.55 49.04&#10;  L 655.25 48.86&#10;  A 0.31 0.31 0.0 0 1 655.18 48.37&#10;  C 657.43 46.02 659.46 42.73 654.69 41.64&#10;  C 652.21 41.07 650.92 42.72 648.86 44.54&#10;  Q 643.41 49.35 640.00 57.43&#10;  Q 639.02 59.73 636.50 59.87&#10;  Q 634.62 59.96 632.92 57.41&#10;  Q 630.93 54.43 630.63 53.96&#10;  A 0.46 0.45 -61.1 0 1 630.55 53.67&#10;  L 631.24 39.04&#10;  A 1.19 1.19 0.0 0 1 632.49 37.91&#10;  L 635.87 38.07&#10;  A 1.18 1.17 -12.1 0 1 636.87 38.71&#10;  C 639.50 43.98 640.13 47.80 646.64 42.53&#10;  A 0.73 0.73 0.0 0 0 646.83 41.61&#10;  Q 645.11 38.44 645.07 37.14&#10;  Q 644.88 30.92 644.41 28.14&#10;  A 4.29 4.19 -44.3 0 1 644.45 26.46&#10;  Q 645.63 21.15 641.69 16.38&#10;  A 2.05 2.01 -70.9 0 1 641.27 15.49&#10;  Q 640.69 12.45 639.92 11.37&#10;  Q 638.60 9.53 639.14 8.73&#10;  C 640.99 6.02 644.86 8.41 645.90 10.33&#10;  C 647.39 13.08 649.26 15.40 651.21 18.30&#10;  A 1.79 1.79 0.0 0 0 652.80 19.09&#10;  Q 656.34 18.88 658.25 21.22&#10;  A 1.53 1.49 79.3 0 0 658.95 21.71&#10;  Q 661.65 22.62 663.77 21.69&#10;  A 1.58 1.56 2.8 0 0 664.52 21.02&#10;  L 670.73 10.27&#10;  A 2.48 2.46 45.2 0 0 670.73 7.82&#10;  L 668.51 3.98&#10;  A 1.24 1.21 -51.9 0 1 668.40 2.98&#10;  Q 669.03 1.02 670.74 0.00&#10;  L 671.90 0.00&#10;  Z&#10;  M 681.29 27.68&#10;  L 684.68 28.74&#10;  A 1.84 1.84 0.0 0 1 685.95 30.21&#10;  Q 686.65 34.39 684.65 36.98&#10;  A 2.71 2.71 0.0 0 0 685.06 40.71&#10;  L 685.98 41.47&#10;  A 2.33 2.32 38.0 0 0 689.35 41.06&#10;  Q 690.98 38.82 692.42 36.17&#10;  Q 696.49 28.65 700.02 23.02&#10;  Q 701.07 21.34 701.85 19.09&#10;  A 2.41 2.24 -62.8 0 0 701.11 16.45&#10;  Q 700.54 16.02 699.35 16.14&#10;  C 693.41 16.77 689.56 22.67 683.43 23.16&#10;  A 1.71 1.69 -77.1 0 0 682.09 24.01&#10;  L 680.76 26.32&#10;  A 0.93 0.93 0.0 0 0 681.29 27.68&#10;  Z&#10;  M 655.16 25.42&#10;  C 652.30 27.98 648.73 30.41 650.24 34.46&#10;  C 651.21 37.05 655.21 36.08 656.86 35.07&#10;  Q 657.84 34.48 663.42 30.21&#10;  A 0.96 0.96 0.0 0 0 663.31 28.61&#10;  Q 661.55 27.60 659.31 28.77&#10;  A 1.03 1.02 -37.1 0 1 658.13 28.61&#10;  Q 657.08 27.60 656.17 25.63&#10;  A 0.64 0.64 0.0 0 0 655.16 25.42&#10;  Z&#10;  M 668.57 39.01&#10;  Q 668.84 39.06 670.61 40.58&#10;  Q 672.48 42.19 675.15 42.09&#10;  A 0.80 0.78 -85.9 0 0 675.90 41.43&#10;  L 677.04 34.98&#10;  A 1.51 1.51 0.0 0 1 679.92 34.65&#10;  L 681.12 37.46&#10;  A 0.77 0.77 0.0 0 0 682.59 37.29&#10;  L 683.45 32.41&#10;  A 0.65 0.63 35.1 0 0 683.36 31.94&#10;  Q 682.53 30.62 681.23 30.13&#10;  A 0.93 0.91 -53.5 0 0 680.34 30.27&#10;  L 677.39 32.52&#10;  A 0.72 0.69 -8.3 0 0 677.18 32.79&#10;  Q 676.45 34.41 674.91 35.56&#10;  A 1.68 1.64 -64.2 0 1 673.97 35.90&#10;  L 670.13 36.09&#10;  A 1.19 1.16 13.6 0 0 669.17 36.66&#10;  L 668.20 38.24&#10;  A 0.51 0.50 -71.0 0 0 668.57 39.01&#10;  Z&#10;  M 664.18 34.73&#10;  A 0.41 0.41 0.0 0 0 664.63 34.10&#10;  Q 664.17 33.48 663.62 33.37&#10;  A 0.30 0.30 0.0 0 0 663.35 33.88&#10;  Q 664.15 34.72 664.18 34.73&#10;  Z&#10;  M 632.27 76.82&#10;  C 638.49 73.80 643.69 70.99 650.21 68.54&#10;  C 656.18 66.29 657.92 65.21 663.56 63.33&#10;  Q 667.62 61.97 669.90 59.88&#10;  A 2.79 2.76 22.6 0 1 671.70 59.15&#10;  Q 673.96 59.08 676.44 57.84&#10;  A 1.51 1.51 0.0 0 0 676.52 55.18&#10;  L 673.45 53.41&#10;  A 0.76 0.74 -34.9 0 0 672.91 53.32&#10;  Q 667.92 54.26 666.92 54.68&#10;  Q 657.55 58.57 650.56 61.11&#10;  Q 648.70 61.79 646.02 63.10&#10;  C 641.66 65.24 638.52 66.65 636.69 70.87&#10;  A 1.58 1.56 89.6 0 1 635.90 71.68&#10;  Q 633.51 72.78 631.86 76.42&#10;  A 0.31 0.30 89.0 0 0 632.27 76.82&#10;  Z&#10;  M 666.73 100.65&#10;  C 666.06 98.58 664.66 97.99 662.37 98.37&#10;  C 656.62 99.33 650.58 100.08 646.04 102.13&#10;  A 5.39 5.36 -59.6 0 1 644.26 102.60&#10;  C 639.81 102.99 624.21 104.21 626.00 111.28&#10;  C 626.46 113.09 628.48 114.62 630.25 114.81&#10;  Q 634.29 115.24 637.56 116.50&#10;  Q 640.32 117.56 652.06 119.66&#10;  A 1.70 1.64 -24.3 0 1 652.62 119.86&#10;  L 655.73 121.66&#10;  A 1.13 1.11 54.7 0 0 656.45 121.79&#10;  L 662.56 120.77&#10;  A 1.09 1.09 0.0 0 0 663.35 120.19&#10;  C 665.31 116.38 665.16 108.90 665.16 103.99&#10;  Q 665.16 103.27 666.53 101.66&#10;  A 1.06 1.06 0.0 0 0 666.73 100.65&#10;  Z"
  />
  <path
    fill="#ffffff"
    d="&#10;  M 714.00 0.00&#10;  L 714.00 10.53&#10;  Q 711.62 6.92 706.09 6.97&#10;  C 702.72 7.00 699.49 8.67 696.12 9.28&#10;  A 6.65 6.54 24.2 0 0 693.88 10.11&#10;  Q 688.05 13.57 683.09 18.06&#10;  C 680.48 20.42 673.95 25.36 670.49 24.74&#10;  A 1.69 1.50 12.1 0 1 669.10 22.85&#10;  C 669.69 20.58 671.37 19.35 673.73 17.04&#10;  A 4.20 4.13 12.6 0 1 675.27 16.08&#10;  C 679.59 14.56 684.84 11.85 682.88 6.33&#10;  Q 682.11 4.16 679.88 3.61&#10;  Q 675.43 2.51 671.90 0.00&#10;  L 714.00 0.00&#10;  Z"
  />
  <path
    fill="#000000"
    d="&#10;  M 250.82 66.51&#10;  Q 249.13 64.40 250.65 62.44&#10;  C 253.20 59.15 255.79 54.77 259.34 49.43&#10;  C 261.20 46.63 264.02 43.68 265.54 40.31&#10;  Q 266.30 38.63 270.53 28.05&#10;  Q 272.05 24.27 272.07 20.89&#10;  A 0.80 0.79 -88.9 0 0 271.31 20.09&#10;  L 267.73 19.92&#10;  A 0.73 0.72 -4.7 0 1 267.06 19.36&#10;  C 266.08 15.01 269.04 12.57 272.98 13.18&#10;  A 1.70 1.68 68.5 0 1 273.77 13.53&#10;  C 279.33 17.95 289.19 19.31 283.65 29.66&#10;  Q 282.51 31.78 277.19 37.81&#10;  Q 275.31 39.94 274.80 40.72&#10;  C 273.90 42.13 272.53 42.95 271.52 44.52&#10;  C 267.14 51.28 260.35 57.73 255.22 64.22&#10;  Q 254.26 65.43 251.70 66.71&#10;  A 0.71 0.71 0.0 0 1 250.82 66.51&#10;  Z"
  />
  <path
    fill="#000000"
    d="&#10;  M 439.97 20.38&#10;  A 0.94 0.94 0.0 0 1 439.53 21.84&#10;  Q 433.20 24.00 427.74 27.47&#10;  C 425.93 28.62 423.29 29.64 421.67 29.99&#10;  A 1.45 1.14 -11.0 0 1 419.99 29.13&#10;  C 419.79 27.83 420.67 27.06 421.20 26.13&#10;  Q 424.43 20.44 426.97 17.96&#10;  Q 428.47 16.51 433.44 13.29&#10;  A 0.96 0.96 0.0 0 1 434.73 13.51&#10;  L 439.97 20.38&#10;  Z"
  />
  <path
    fill="#000000"
    d="&#10;  M 534.30 85.27&#10;  A 1.83 1.83 0.0 0 0 532.54 82.63&#10;  Q 528.87 82.85 526.69 83.90&#10;  Q 524.85 84.79 521.58 86.86&#10;  A 5.92 5.87 22.6 0 1 519.61 87.66&#10;  Q 517.85 88.02 509.82 92.27&#10;  Q 506.51 94.02 502.73 92.26&#10;  C 500.24 91.09 498.78 88.26 499.48 85.79&#10;  Q 500.27 82.99 503.24 83.03&#10;  Q 507.88 83.09 510.66 82.78&#10;  A 3.29 3.28 -59.1 0 0 511.53 82.56&#10;  L 519.80 79.29&#10;  A 19.18 18.85 27.7 0 1 522.82 78.38&#10;  Q 523.00 78.34 532.81 76.61&#10;  C 537.74 75.74 538.79 72.06 539.44 67.91&#10;  A 3.26 3.22 -26.2 0 1 539.80 66.87&#10;  Q 541.08 64.59 541.41 61.17&#10;  Q 542.22 52.44 545.34 44.05&#10;  A 6.29 6.26 -32.6 0 0 545.71 42.38&#10;  Q 546.79 29.70 545.68 23.07&#10;  Q 545.15 19.92 541.61 16.71&#10;  A 1.08 1.07 -35.5 0 1 541.91 14.93&#10;  L 543.74 14.15&#10;  A 3.14 3.11 50.5 0 1 546.73 14.45&#10;  Q 548.30 15.51 551.86 19.16&#10;  C 553.86 21.22 554.93 22.37 555.09 25.17&#10;  Q 555.21 27.34 556.42 29.91&#10;  A 4.35 4.34 37.4 0 1 556.77 32.52&#10;  L 553.83 49.26&#10;  A 2.46 2.39 -30.2 0 1 553.71 49.69&#10;  Q 549.69 59.06 546.94 70.14&#10;  A 0.78 0.77 7.8 0 0 547.67 71.10&#10;  Q 555.18 71.35 560.16 66.27&#10;  A 4.29 4.09 -13.5 0 0 561.09 64.83&#10;  L 563.19 59.47&#10;  A 1.98 1.97 4.2 0 1 564.61 58.25&#10;  Q 569.11 57.24 573.83 58.76&#10;  A 1.33 1.31 -1.8 0 1 574.66 59.53&#10;  Q 576.35 63.88 572.76 66.18&#10;  C 570.80 67.44 566.89 69.30 563.63 70.44&#10;  Q 561.28 71.25 559.27 73.06&#10;  A 3.23 3.17 21.5 0 1 557.36 73.87&#10;  Q 551.96 74.28 546.75 77.03&#10;  A 1.33 1.32 -7.4 0 0 546.09 77.88&#10;  Q 545.41 80.63 546.39 83.10&#10;  A 1.77 1.73 8.3 0 0 546.97 83.86&#10;  Q 548.99 85.38 549.61 86.15&#10;  Q 553.52 91.00 557.69 95.33&#10;  Q 563.92 101.80 573.52 103.49&#10;  C 579.63 104.58 585.67 102.71 591.08 101.16&#10;  A 0.68 0.67 -17.0 0 1 591.91 101.59&#10;  Q 592.40 103.05 591.22 103.91&#10;  Q 588.61 105.81 585.46 107.62&#10;  A 10.05 9.99 -81.6 0 0 583.55 109.05&#10;  L 575.06 117.18&#10;  A 2.61 2.54 -69.9 0 1 573.63 117.87&#10;  Q 561.46 119.55 556.23 109.50&#10;  Q 548.22 94.11 544.34 88.48&#10;  Q 542.94 86.44 540.86 87.85&#10;  A 1.39 1.36 -13.4 0 0 540.28 88.77&#10;  Q 539.72 92.39 538.13 96.42&#10;  Q 537.91 96.97 538.47 98.05&#10;  A 0.78 0.76 54.3 0 1 538.33 98.94&#10;  Q 537.47 99.81 536.84 102.09&#10;  A 2.26 2.15 76.0 0 1 536.32 103.01&#10;  C 535.57 103.81 534.32 104.04 533.25 104.74&#10;  C 526.35 109.26 519.67 110.30 510.19 111.63&#10;  A 4.23 4.17 -43.0 0 1 508.78 111.59&#10;  L 499.89 109.78&#10;  A 1.11 1.11 0.0 0 1 499.53 107.74&#10;  C 502.78 105.76 507.18 105.88 510.20 105.00&#10;  Q 515.02 103.59 520.28 102.76&#10;  A 1.68 1.68 0.0 0 0 521.23 102.26&#10;  Q 522.09 101.39 522.21 99.93&#10;  A 0.66 0.65 -2.9 0 1 522.75 99.34&#10;  C 526.25 98.71 530.46 93.02 531.93 90.05&#10;  Q 534.18 85.52 534.30 85.27&#10;  Z"
  />
  <path
    fill="#ffffff"
    d="&#10;  M 714.00 14.14&#10;  L 714.00 132.00&#10;  L 668.50 132.00&#10;  Q 670.76 130.59 670.85 128.78&#10;  Q 671.07 124.55 672.43 120.49&#10;  Q 673.26 117.99 672.76 115.57&#10;  Q 672.01 112.02 672.60 107.92&#10;  C 673.03 104.93 672.65 103.01 672.17 100.27&#10;  A 2.67 2.55 -47.7 0 1 672.15 99.42&#10;  Q 672.37 97.73 672.74 97.06&#10;  A 2.08 2.07 -69.4 0 1 675.00 96.03&#10;  Q 686.77 98.59 694.53 97.94&#10;  Q 695.23 97.88 695.76 97.68&#10;  A 1.99 1.99 0.0 0 0 696.02 94.08&#10;  C 693.24 92.55 691.59 89.37 688.65 85.12&#10;  Q 687.67 83.71 686.01 83.06&#10;  A 1.93 1.93 0.0 0 0 684.83 83.00&#10;  C 681.49 83.87 679.67 84.88 676.37 83.96&#10;  A 0.37 0.37 0.0 0 1 676.16 83.40&#10;  L 680.24 77.09&#10;  A 6.54 6.45 71.2 0 0 680.94 75.64&#10;  L 682.38 71.37&#10;  A 1.64 1.57 -14.0 0 1 682.76 70.77&#10;  L 685.64 67.88&#10;  A 2.62 2.56 -75.7 0 1 686.69 67.24&#10;  C 688.87 66.55 690.28 65.17 692.51 64.92&#10;  C 696.89 64.41 702.27 60.45 705.52 57.85&#10;  A 4.60 4.41 -1.5 0 0 706.33 57.03&#10;  Q 707.73 55.23 709.35 54.06&#10;  A 1.70 1.70 0.0 0 0 709.94 52.04&#10;  Q 707.61 46.24 701.04 46.84&#10;  Q 697.01 47.21 695.93 47.40&#10;  A 2.11 2.11 0.0 0 1 694.07 43.83&#10;  L 695.50 42.40&#10;  A 1.63 1.49 -8.7 0 0 695.71 42.14&#10;  L 702.06 32.01&#10;  A 8.17 8.12 69.1 0 0 703.01 29.87&#10;  Q 704.65 24.10 705.60 23.11&#10;  Q 709.94 18.58 714.00 14.14&#10;  Z"
  />
  <path
    fill="#000000"
    d="&#10;  M 86.41 41.45&#10;  L 83.68 40.97&#10;  A 0.89 0.89 0.0 0 1 82.94 40.07&#10;  Q 83.01 37.15 84.56 34.81&#10;  A 1.58 1.57 13.4 0 0 83.06 32.38&#10;  L 76.43 33.14&#10;  A 2.51 1.91 26.1 0 0 76.12 33.20&#10;  L 62.64 36.93&#10;  A 4.10 3.89 23.3 0 0 61.91 37.20&#10;  L 59.78 38.21&#10;  A 3.86 3.61 23.7 0 1 59.07 38.46&#10;  Q 44.25 42.29 29.87 49.25&#10;  C 25.66 51.29 23.19 55.98 18.11 53.14&#10;  Q 14.83 51.31 13.26 48.26&#10;  Q 12.44 46.67 5.94 37.81&#10;  C 2.98 33.76 7.62 31.93 10.82 32.61&#10;  Q 15.24 33.56 20.05 34.74&#10;  A 1.93 1.89 -45.6 0 0 21.03 34.72&#10;  Q 21.69 34.54 22.42 34.01&#10;  C 24.84 32.30 30.02 33.32 34.48 33.74&#10;  A 8.69 8.63 41.2 0 0 37.19 33.57&#10;  C 38.86 33.21 41.10 32.32 43.25 31.90&#10;  Q 50.87 30.44 54.29 29.02&#10;  Q 60.25 26.55 63.35 25.80&#10;  Q 64.99 25.40 67.58 24.50&#10;  Q 80.66 19.99 90.00 15.69&#10;  A 1.56 1.54 -51.7 0 1 90.89 15.58&#10;  L 91.63 15.71&#10;  A 2.99 2.94 -45.5 0 0 92.71 15.69&#10;  Q 96.72 14.80 98.49 14.96&#10;  Q 107.95 15.78 111.91 23.49&#10;  A 1.67 1.67 0.0 0 1 111.01 25.81&#10;  L 109.37 26.43&#10;  A 1.42 1.39 -86.4 0 0 108.61 27.11&#10;  Q 106.81 30.66 105.56 31.55&#10;  Q 104.19 32.52 96.64 36.87&#10;  A 12.05 12.00 23.1 0 1 93.59 38.09&#10;  C 90.61 38.82 89.25 39.32 87.21 41.21&#10;  A 0.93 0.93 0.0 0 1 86.41 41.45&#10;  Z"
  />
  <path
    fill="#ffffff"
    d="&#10;  M 680.76 26.32&#10;  L 682.09 24.01&#10;  A 1.71 1.69 -77.1 0 1 683.43 23.16&#10;  C 689.56 22.67 693.41 16.77 699.35 16.14&#10;  Q 700.54 16.02 701.11 16.45&#10;  A 2.41 2.24 -62.8 0 1 701.85 19.09&#10;  Q 701.07 21.34 700.02 23.02&#10;  Q 696.49 28.65 692.42 36.17&#10;  Q 690.98 38.82 689.35 41.06&#10;  A 2.33 2.32 38.0 0 1 685.98 41.47&#10;  L 685.06 40.71&#10;  A 2.71 2.71 0.0 0 1 684.65 36.98&#10;  Q 686.65 34.39 685.95 30.21&#10;  A 1.84 1.84 0.0 0 0 684.68 28.74&#10;  L 681.29 27.68&#10;  A 0.93 0.93 0.0 0 1 680.76 26.32&#10;  Z"
  />
  <path
    fill="#000000"
    d="&#10;  M 158.54 93.32&#10;  C 154.70 94.70 152.74 96.82 151.22 100.79&#10;  C 150.29 103.25 149.76 103.91 148.85 106.59&#10;  C 147.05 111.89 135.78 112.57 132.89 108.06&#10;  Q 130.72 104.66 133.95 102.71&#10;  Q 134.97 102.09 141.40 99.21&#10;  C 143.54 98.25 145.06 96.54 147.56 96.01&#10;  A 3.27 3.20 18.4 0 0 149.01 95.30&#10;  C 152.40 92.35 153.99 89.72 159.28 89.84&#10;  A 0.66 0.66 0.0 0 0 159.95 89.21&#10;  C 160.18 83.75 161.10 79.28 160.89 73.10&#10;  C 160.42 59.76 161.44 46.00 162.85 32.76&#10;  Q 162.88 32.41 162.81 29.76&#10;  C 162.73 26.52 160.43 21.56 164.69 20.12&#10;  A 1.02 1.02 0.0 0 1 165.71 20.35&#10;  Q 167.29 21.83 172.68 26.13&#10;  Q 174.52 27.60 175.58 29.89&#10;  A 3.64 3.62 -38.4 0 1 175.14 33.65&#10;  Q 171.74 38.00 171.41 44.25&#10;  Q 171.03 51.42 170.30 55.70&#10;  C 168.83 64.28 169.04 69.66 168.45 79.41&#10;  C 168.10 85.21 169.36 90.97 168.80 95.73&#10;  A 1.45 1.39 72.5 0 1 168.37 96.60&#10;  C 167.10 97.83 165.82 100.95 163.22 101.07&#10;  A 1.05 1.05 0.0 0 1 162.34 100.65&#10;  Q 160.29 97.94 159.44 93.82&#10;  A 0.68 0.68 0.0 0 0 158.54 93.32&#10;  Z"
  />
  <path
    fill="#ffffff"
    d="&#10;  M 655.16 25.42&#10;  A 0.64 0.64 0.0 0 1 656.17 25.63&#10;  Q 657.08 27.60 658.13 28.61&#10;  A 1.03 1.02 -37.1 0 0 659.31 28.77&#10;  Q 661.55 27.60 663.31 28.61&#10;  A 0.96 0.96 0.0 0 1 663.42 30.21&#10;  Q 657.84 34.48 656.86 35.07&#10;  C 655.21 36.08 651.21 37.05 650.24 34.46&#10;  C 648.73 30.41 652.30 27.98 655.16 25.42&#10;  Z"
  />
  <path
    fill="#000000"
    d="&#10;  M 384.93 36.74&#10;  C 385.42 40.44 384.40 40.90 381.78 43.89&#10;  A 2.41 2.25 74.4 0 0 381.27 44.87&#10;  L 380.62 47.55&#10;  A 1.73 1.72 -0.6 0 1 379.37 48.82&#10;  Q 374.78 50.00 372.51 45.63&#10;  Q 369.91 40.62 370.10 39.13&#10;  A 0.10 0.08 -38.0 0 1 370.11 39.09&#10;  L 373.21 32.85&#10;  A 1.30 1.30 0.0 0 1 374.10 32.16&#10;  Q 377.37 31.44 377.97 27.34&#10;  A 1.68 1.67 -71.6 0 1 380.42 26.11&#10;  L 380.73 26.27&#10;  A 2.45 2.45 0.0 0 1 382.03 28.87&#10;  L 381.02 34.61&#10;  A 1.19 1.19 0.0 0 0 382.13 36.00&#10;  L 384.23 36.10&#10;  A 0.73 0.73 0.0 0 1 384.93 36.74&#10;  Z"
  />
  <path
    fill="#000000"
    d="&#10;  M 393.28 32.06&#10;  A 0.84 0.84 0.0 0 1 392.45 30.81&#10;  L 392.84 30.13&#10;  A 3.80 3.80 0.0 0 1 395.74 28.25&#10;  Q 398.25 27.99 403.06 27.90&#10;  Q 403.79 27.89 405.37 27.03&#10;  C 407.00 26.15 408.63 25.82 410.21 26.04&#10;  A 0.98 0.98 0.0 0 1 410.99 27.34&#10;  Q 409.25 32.12 407.97 36.20&#10;  Q 407.00 39.32 403.93 39.95&#10;  A 2.38 2.38 0.0 0 1 401.26 38.55&#10;  L 399.36 34.10&#10;  A 2.11 2.09 -87.0 0 0 398.46 33.09&#10;  Q 396.02 31.71 393.28 32.06&#10;  Z"
  />
  <path
    fill="#000000"
    d="&#10;  M 296.66 45.85&#10;  A 0.78 0.78 0.0 0 1 296.16 44.51&#10;  C 299.30 41.52 303.05 42.67 306.53 41.26&#10;  A 2.86 2.71 8.8 0 0 307.54 40.56&#10;  Q 309.23 38.71 312.07 37.70&#10;  A 2.44 2.42 -83.5 0 0 313.31 36.71&#10;  Q 315.05 33.97 321.23 30.48&#10;  C 323.42 29.25 325.70 27.93 327.37 29.91&#10;  Q 328.60 31.37 328.85 32.82&#10;  A 1.26 1.25 59.3 0 1 328.61 33.79&#10;  Q 319.74 45.44 306.04 51.95&#10;  A 0.78 0.77 -11.5 0 1 304.93 51.22&#10;  L 305.06 48.43&#10;  A 2.18 2.17 2.9 0 0 302.99 46.15&#10;  L 296.66 45.85&#10;  Z"
  />
  <path
    fill="#ffffff"
    d="&#10;  M 668.20 38.24&#10;  L 669.17 36.66&#10;  A 1.19 1.16 13.6 0 1 670.13 36.09&#10;  L 673.97 35.90&#10;  A 1.68 1.64 -64.2 0 0 674.91 35.56&#10;  Q 676.45 34.41 677.18 32.79&#10;  A 0.72 0.69 -8.3 0 1 677.39 32.52&#10;  L 680.34 30.27&#10;  A 0.93 0.91 -53.5 0 1 681.23 30.13&#10;  Q 682.53 30.62 683.36 31.94&#10;  A 0.65 0.63 35.1 0 1 683.45 32.41&#10;  L 682.59 37.29&#10;  A 0.77 0.77 0.0 0 1 681.12 37.46&#10;  L 679.92 34.65&#10;  A 1.51 1.51 0.0 0 0 677.04 34.98&#10;  L 675.90 41.43&#10;  A 0.80 0.78 -85.9 0 1 675.15 42.09&#10;  Q 672.48 42.19 670.61 40.58&#10;  Q 668.84 39.06 668.57 39.01&#10;  A 0.51 0.50 -71.0 0 1 668.20 38.24&#10;  Z"
  />
  <path
    fill="#000000"
    d="&#10;  M 193.26 87.73&#10;  Q 194.17 88.53 195.79 88.70&#10;  A 1.62 1.60 34.5 0 0 196.68 88.54&#10;  Q 200.70 86.61 201.44 86.45&#10;  C 204.60 85.78 213.37 84.93 214.90 88.74&#10;  C 217.08 94.19 204.15 97.34 199.28 98.68&#10;  A 1.15 1.15 0.0 0 1 198.30 98.51&#10;  Q 194.88 96.09 192.31 95.42&#10;  Q 187.41 94.15 184.91 92.42&#10;  A 1.76 1.75 -82.6 0 1 184.26 91.57&#10;  Q 183.73 90.01 183.94 88.72&#10;  Q 184.86 82.98 185.07 77.70&#10;  Q 185.24 73.40 181.04 74.00&#10;  A 0.94 0.93 74.4 0 1 180.04 73.43&#10;  C 179.11 71.10 182.93 69.04 185.58 67.05&#10;  A 3.24 3.23 -16.7 0 0 186.88 64.65&#10;  C 187.17 60.00 187.92 55.39 187.44 50.20&#10;  Q 187.20 47.60 187.89 44.05&#10;  C 188.72 39.75 192.30 35.60 193.65 32.01&#10;  A 1.26 1.25 89.0 0 1 194.36 31.27&#10;  C 198.63 29.51 201.87 34.39 202.90 37.78&#10;  Q 203.95 41.22 205.56 42.96&#10;  A 3.02 2.92 13.1 0 1 206.11 43.81&#10;  L 211.53 56.53&#10;  A 3.90 3.88 41.0 0 1 211.71 59.07&#10;  C 210.92 61.98 208.84 66.93 205.57 68.08&#10;  Q 204.23 68.55 197.37 70.10&#10;  A 2.09 2.05 17.1 0 0 196.44 70.58&#10;  C 193.55 73.12 193.55 76.10 194.58 79.54&#10;  A 1.58 1.58 0.0 0 1 194.48 80.70&#10;  Q 193.23 83.22 192.90 86.83&#10;  A 1.07 1.06 23.4 0 0 193.26 87.73&#10;  Z&#10;  M 195.10 39.47&#10;  Q 194.67 40.20 194.43 41.42&#10;  Q 193.35 46.81 193.08 52.18&#10;  C 192.87 56.45 193.87 61.37 194.10 65.32&#10;  A 0.80 0.80 0.0 0 0 194.89 66.07&#10;  Q 199.17 66.11 202.35 64.82&#10;  A 1.15 1.14 86.0 0 0 203.03 64.03&#10;  C 204.19 59.22 205.95 53.68 204.00 50.93&#10;  Q 200.02 45.31 197.12 39.54&#10;  A 1.15 1.15 0.0 0 0 195.10 39.47&#10;  Z"
  />
  <path
    fill="#ffffff"
    d="&#10;  M 664.18 34.73&#10;  Q 664.15 34.72 663.35 33.88&#10;  A 0.30 0.30 0.0 0 1 663.62 33.37&#10;  Q 664.17 33.48 664.63 34.10&#10;  A 0.41 0.41 0.0 0 1 664.18 34.73&#10;  Z"
  />
  <path
    fill="#ffffff"
    d="&#10;  M 195.10 39.47&#10;  A 1.15 1.15 0.0 0 1 197.12 39.54&#10;  Q 200.02 45.31 204.00 50.93&#10;  C 205.95 53.68 204.19 59.22 203.03 64.03&#10;  A 1.15 1.14 86.0 0 1 202.35 64.82&#10;  Q 199.17 66.11 194.89 66.07&#10;  A 0.80 0.80 0.0 0 1 194.10 65.32&#10;  C 193.87 61.37 192.87 56.45 193.08 52.18&#10;  Q 193.35 46.81 194.43 41.42&#10;  Q 194.67 40.20 195.10 39.47&#10;  Z"
  />
  <path
    fill="#000000"
    d="&#10;  M 0.00 89.63&#10;  L 0.00 86.32&#10;  Q 4.80 85.51 9.64 86.73&#10;  Q 14.28 87.89 15.76 87.87&#10;  Q 21.52 87.77 26.15 85.88&#10;  Q 29.64 84.46 36.62 80.79&#10;  A 2.41 2.39 83.6 0 0 37.82 79.28&#10;  C 38.99 74.83 36.25 70.42 34.33 66.57&#10;  A 1.20 1.19 -44.7 0 1 34.34 65.47&#10;  C 35.44 63.42 37.85 59.47 40.54 62.49&#10;  Q 44.38 66.80 45.25 72.36&#10;  A 2.06 2.04 -2.7 0 0 47.17 74.09&#10;  Q 52.86 74.38 56.30 71.48&#10;  A 1.34 1.33 -66.5 0 1 57.11 71.16&#10;  L 61.63 70.95&#10;  A 2.30 2.29 -73.0 0 0 63.37 70.02&#10;  Q 65.00 67.83 65.90 65.95&#10;  Q 67.33 62.95 70.12 55.77&#10;  C 72.31 50.11 73.66 47.33 72.07 41.76&#10;  A 2.02 2.02 0.0 0 1 74.64 39.29&#10;  Q 76.64 39.95 78.42 41.46&#10;  A 2.82 2.82 0.0 0 1 79.15 42.42&#10;  C 80.13 44.54 80.33 45.46 81.75 47.19&#10;  C 84.35 50.38 82.34 52.77 82.35 56.33&#10;  A 1.53 1.52 82.2 0 0 84.28 57.80&#10;  Q 91.18 55.93 94.55 54.71&#10;  C 99.46 52.92 99.91 55.45 102.92 57.83&#10;  Q 108.71 62.42 103.82 69.12&#10;  Q 99.69 74.77 98.44 77.75&#10;  A 8.90 8.83 77.2 0 1 96.84 80.31&#10;  Q 92.52 85.16 87.54 92.51&#10;  C 86.21 94.46 83.80 95.99 82.85 97.88&#10;  C 81.66 100.28 78.15 102.16 75.99 100.35&#10;  Q 73.17 97.99 72.13 94.76&#10;  A 1.74 1.73 49.3 0 1 72.22 93.48&#10;  C 75.08 87.64 80.67 86.22 83.35 80.99&#10;  A 5.32 4.92 -12.3 0 1 84.16 79.83&#10;  C 87.29 76.43 91.17 72.55 92.68 68.20&#10;  A 2.30 2.29 -82.7 0 0 90.33 65.16&#10;  Q 82.93 65.75 76.59 69.15&#10;  A 1.13 1.12 77.4 0 0 76.00 70.09&#10;  L 75.88 72.68&#10;  A 1.35 1.33 -16.3 0 1 75.30 73.72&#10;  L 73.99 74.64&#10;  A 1.81 1.79 -2.0 0 0 73.47 75.19&#10;  Q 70.35 80.12 67.91 85.13&#10;  C 65.44 90.20 62.42 93.72 58.99 97.98&#10;  Q 57.10 100.32 56.79 102.83&#10;  A 1.07 1.06 4.1 0 0 57.83 104.02&#10;  C 61.29 104.07 66.00 103.20 68.50 104.98&#10;  Q 71.59 107.19 72.81 110.70&#10;  A 3.28 2.68 -30.9 0 1 71.63 113.96&#10;  Q 66.03 118.46 57.92 116.52&#10;  A 0.79 0.78 -68.0 0 1 57.43 115.36&#10;  Q 57.89 114.57 58.00 112.86&#10;  A 0.41 0.40 82.6 0 0 57.48 112.45&#10;  Q 54.70 113.31 47.00 112.88&#10;  A 1.04 1.03 87.2 0 1 46.04 112.00&#10;  C 45.63 109.29 44.33 106.73 45.73 103.97&#10;  Q 47.13 101.22 49.68 97.52&#10;  A 1.36 1.36 0.0 0 0 48.72 95.40&#10;  C 44.13 94.84 41.18 91.10 37.07 86.65&#10;  A 0.80 0.78 58.4 0 0 36.22 86.44&#10;  L 30.14 88.65&#10;  A 1.31 1.28 -84.5 0 0 29.45 89.23&#10;  L 27.71 92.25&#10;  A 1.12 1.12 0.0 0 1 27.14 92.73&#10;  L 23.99 93.88&#10;  A 1.28 1.23 -88.6 0 0 23.24 94.62&#10;  L 22.16 97.55&#10;  A 2.28 2.25 41.3 0 0 22.29 99.42&#10;  L 24.70 103.89&#10;  A 1.98 1.90 -60.5 0 1 24.92 104.75&#10;  L 25.13 114.21&#10;  A 1.03 1.03 0.0 0 1 24.05 115.26&#10;  L 12.82 114.73&#10;  A 1.82 1.82 0.0 0 1 11.09 112.99&#10;  Q 10.80 106.34 10.08 99.75&#10;  Q 9.06 90.46 0.00 89.63&#10;  Z&#10;  M 58.21 77.86&#10;  Q 55.07 77.97 51.55 80.95&#10;  A 0.83 0.83 0.0 0 0 51.37 82.00&#10;  L 53.50 85.69&#10;  A 0.70 0.70 0.0 0 0 54.54 85.89&#10;  Q 58.26 83.03 59.10 78.91&#10;  A 0.88 0.87 4.9 0 0 58.21 77.86&#10;  Z"
  />
  <path
    fill="#000000"
    d="&#10;  M 422.04 77.74&#10;  Q 420.94 81.58 421.05 82.56&#10;  Q 421.82 89.48 422.05 96.64&#10;  A 2.13 2.12 -6.7 0 0 424.61 98.65&#10;  Q 427.70 98.01 431.41 96.74&#10;  C 436.04 95.15 441.98 94.86 447.29 94.83&#10;  C 451.68 94.81 451.96 91.13 451.46 87.61&#10;  C 450.94 83.91 452.27 81.29 451.57 77.67&#10;  Q 451.08 75.14 451.03 72.53&#10;  A 2.26 2.26 0.0 0 1 454.10 70.37&#10;  L 454.13 70.38&#10;  A 5.66 5.65 -84.2 0 1 457.70 74.77&#10;  C 458.10 77.27 457.62 80.39 459.25 82.88&#10;  A 3.67 3.65 -64.6 0 1 459.82 84.50&#10;  Q 459.98 86.12 460.95 88.79&#10;  C 462.75 93.75 462.45 98.86 459.99 103.41&#10;  A 2.70 2.70 0.0 0 1 457.80 104.81&#10;  Q 439.40 106.07 430.56 106.54&#10;  Q 424.91 106.84 419.96 108.78&#10;  A 3.45 3.43 56.7 0 1 416.29 108.01&#10;  L 411.20 102.92&#10;  A 0.41 0.41 0.0 0 1 411.08 102.63&#10;  Q 410.60 93.37 411.10 84.02&#10;  Q 411.48 76.81 414.44 70.52&#10;  A 4.97 4.84 59.8 0 0 414.90 68.68&#10;  L 415.12 63.99&#10;  A 1.94 1.92 83.8 0 1 416.53 62.22&#10;  L 417.58 61.93&#10;  A 1.12 1.12 0.0 0 1 418.99 63.07&#10;  C 418.80 66.82 419.58 70.73 423.45 72.13&#10;  A 0.30 0.30 0.0 0 0 423.80 71.67&#10;  C 422.14 69.40 421.31 66.28 423.16 63.58&#10;  A 0.91 0.88 8.5 0 1 423.65 63.23&#10;  L 425.39 62.75&#10;  A 0.78 0.77 80.1 0 0 425.95 61.94&#10;  Q 425.72 59.17 427.05 57.49&#10;  C 428.94 55.12 427.41 52.71 425.21 51.47&#10;  A 0.62 0.61 40.9 0 1 425.13 50.45&#10;  Q 426.86 49.13 430.39 49.01&#10;  A 2.19 2.12 27.0 0 0 431.47 48.68&#10;  C 433.76 47.23 433.66 44.96 437.69 44.94&#10;  A 1.06 1.05 74.2 0 1 438.59 45.45&#10;  C 441.40 50.01 444.03 51.88 439.56 56.07&#10;  Q 433.71 61.55 431.48 62.97&#10;  Q 430.88 63.35 429.36 65.44&#10;  C 428.50 66.62 429.02 67.47 429.88 68.42&#10;  A 0.76 0.75 61.7 0 0 430.64 68.65&#10;  L 431.41 68.43&#10;  A 0.42 0.42 0.0 0 1 431.93 68.94&#10;  Q 431.84 69.31 431.49 69.70&#10;  A 0.99 0.98 55.7 0 0 431.30 70.72&#10;  Q 433.10 75.32 433.08 80.10&#10;  A 0.98 0.97 1.4 0 1 432.05 81.07&#10;  L 428.21 80.89&#10;  A 1.20 1.18 77.2 0 1 427.21 80.25&#10;  Q 426.09 78.08 422.66 77.36&#10;  A 0.54 0.53 -75.9 0 0 422.04 77.74&#10;  Z"
  />
  <path
    fill="#000000"
    d="&#10;  M 269.34 80.38&#10;  C 270.21 77.05 273.54 76.10 276.32 75.02&#10;  A 0.57 0.56 64.2 0 0 276.60 74.21&#10;  L 271.54 65.44&#10;  A 2.46 2.46 0.0 0 0 267.78 64.83&#10;  Q 265.85 66.55 263.03 67.57&#10;  A 1.10 1.09 64.0 0 0 262.48 69.18&#10;  Q 263.54 70.88 265.57 73.30&#10;  C 266.96 74.97 266.09 76.67 266.08 78.41&#10;  Q 265.93 94.81 265.90 101.15&#10;  A 1.78 1.77 -1.6 0 1 264.23 102.91&#10;  Q 259.41 103.18 255.39 100.62&#10;  Q 253.90 99.66 253.49 96.82&#10;  C 252.82 92.14 252.10 89.42 255.39 86.07&#10;  C 259.21 82.18 257.70 76.35 258.77 71.52&#10;  A 3.57 3.56 -47.3 0 0 258.70 69.72&#10;  L 258.33 68.54&#10;  A 1.48 1.47 55.2 0 1 258.56 67.24&#10;  Q 260.61 64.51 261.73 63.69&#10;  Q 271.04 56.91 278.36 49.15&#10;  C 281.12 46.22 285.39 48.86 285.90 52.30&#10;  A 1.74 1.62 -43.0 0 1 285.85 53.00&#10;  L 284.72 56.98&#10;  A 1.43 1.43 0.0 0 1 284.21 57.73&#10;  L 282.98 58.71&#10;  A 2.05 2.03 78.9 0 0 282.28 59.76&#10;  Q 281.56 62.25 280.23 63.32&#10;  A 0.34 0.34 0.0 0 0 280.43 63.93&#10;  L 281.78 64.00&#10;  A 1.26 1.26 0.0 0 1 282.88 64.74&#10;  Q 283.56 66.23 284.27 66.74&#10;  A 0.84 0.83 -65.9 0 1 284.59 67.60&#10;  Q 283.97 70.47 282.54 71.40&#10;  A 0.96 0.96 0.0 0 0 282.11 72.05&#10;  Q 281.68 74.76 282.85 74.94&#10;  A 1.12 1.12 0.0 0 1 283.73 75.91&#10;  L 284.64 83.54&#10;  A 1.84 1.81 60.8 0 1 284.27 84.88&#10;  Q 283.37 86.04 282.70 90.37&#10;  Q 282.51 91.60 280.39 92.92&#10;  A 0.89 0.89 0.0 0 1 279.48 92.94&#10;  L 275.48 90.63&#10;  A 2.96 2.94 -78.4 0 1 274.03 88.41&#10;  Q 273.63 84.93 274.83 81.77&#10;  A 0.52 0.52 0.0 0 0 274.37 81.07&#10;  L 269.69 80.85&#10;  A 0.38 0.37 8.6 0 1 269.34 80.38&#10;  Z"
  />
  <path
    fill="#000000"
    d="&#10;  M 400.22 62.54&#10;  L 398.15 62.76&#10;  A 1.22 1.22 0.0 0 0 397.06 64.01&#10;  Q 397.22 68.86 396.04 72.61&#10;  A 1.11 1.11 0.0 0 0 396.52 73.89&#10;  Q 399.08 75.45 402.58 74.14&#10;  A 1.47 1.46 -85.2 0 1 404.36 76.25&#10;  L 402.64 79.23&#10;  A 0.73 0.72 42.4 0 0 402.68 80.01&#10;  Q 405.29 83.66 405.02 88.95&#10;  A 1.59 1.58 -2.4 0 1 403.63 90.45&#10;  L 397.81 91.19&#10;  A 0.90 0.70 20.9 0 0 397.52 91.28&#10;  Q 395.05 92.61 394.03 95.30&#10;  Q 391.98 100.74 389.93 106.13&#10;  Q 387.90 111.50 390.47 116.16&#10;  A 1.77 1.77 0.0 0 1 389.11 118.77&#10;  L 388.28 118.85&#10;  A 3.27 3.27 0.0 0 1 385.29 117.52&#10;  C 382.45 113.57 379.82 110.35 380.72 105.74&#10;  Q 381.17 103.44 380.96 100.95&#10;  A 1.23 1.22 66.9 0 0 378.93 100.13&#10;  Q 376.53 102.23 372.09 106.30&#10;  Q 371.23 107.08 369.57 107.08&#10;  C 366.69 107.08 364.54 107.42 364.07 103.74&#10;  Q 363.95 102.82 365.22 99.88&#10;  A 1.16 1.12 -0.3 0 1 365.83 99.28&#10;  C 369.99 97.61 371.25 95.61 373.89 93.29&#10;  A 5.26 5.26 0.0 0 0 374.87 92.17&#10;  Q 378.46 86.63 384.33 84.85&#10;  A 2.30 2.30 0.0 0 0 385.52 83.99&#10;  C 387.60 81.08 382.43 77.18 386.74 75.54&#10;  Q 388.59 74.84 387.34 72.55&#10;  A 1.89 1.88 53.1 0 0 384.35 72.12&#10;  L 380.65 75.81&#10;  A 1.57 1.50 76.6 0 0 380.26 76.48&#10;  L 379.76 78.26&#10;  A 0.96 0.95 4.1 0 1 378.96 78.95&#10;  C 375.82 79.35 372.16 78.87 371.97 75.22&#10;  A 1.52 1.50 64.7 0 1 372.35 74.14&#10;  C 374.05 72.20 374.92 71.15 377.77 70.98&#10;  Q 381.33 70.78 383.41 69.62&#10;  Q 386.42 67.93 387.02 67.83&#10;  A 1.13 1.13 0.0 0 0 387.85 67.31&#10;  L 390.68 62.83&#10;  A 2.42 2.41 -51.6 0 0 390.34 59.83&#10;  L 387.18 56.66&#10;  A 0.99 0.98 -21.0 0 1 387.93 54.98&#10;  L 391.15 55.13&#10;  A 0.75 0.75 0.0 0 0 391.94 54.36&#10;  Q 391.85 51.13 392.76 49.20&#10;  A 2.76 2.44 25.0 0 1 396.28 48.16&#10;  Q 397.18 48.57 397.52 50.03&#10;  Q 398.23 53.10 398.98 58.10&#10;  A 1.23 1.22 -13.0 0 0 400.56 59.08&#10;  Q 403.79 58.04 407.03 59.47&#10;  A 1.57 1.57 0.0 0 1 407.51 62.02&#10;  L 405.95 63.58&#10;  A 2.17 2.07 78.0 0 0 405.44 64.41&#10;  Q 403.98 68.95 399.57 70.80&#10;  A 0.53 0.52 -9.9 0 1 398.84 70.29&#10;  Q 399.03 67.29 401.01 63.76&#10;  A 0.82 0.82 0.0 0 0 400.22 62.54&#10;  Z"
  />
  <path
    fill="#ffffff"
    d="&#10;  M 632.27 76.82&#10;  A 0.31 0.30 89.0 0 1 631.86 76.42&#10;  Q 633.51 72.78 635.90 71.68&#10;  A 1.58 1.56 89.6 0 0 636.69 70.87&#10;  C 638.52 66.65 641.66 65.24 646.02 63.10&#10;  Q 648.70 61.79 650.56 61.11&#10;  Q 657.55 58.57 666.92 54.68&#10;  Q 667.92 54.26 672.91 53.32&#10;  A 0.76 0.74 -34.9 0 1 673.45 53.41&#10;  L 676.52 55.18&#10;  A 1.51 1.51 0.0 0 1 676.44 57.84&#10;  Q 673.96 59.08 671.70 59.15&#10;  A 2.79 2.76 22.6 0 0 669.90 59.88&#10;  Q 667.62 61.97 663.56 63.33&#10;  C 657.92 65.21 656.18 66.29 650.21 68.54&#10;  C 643.69 70.99 638.49 73.80 632.27 76.82&#10;  Z"
  />
  <path
    fill="#000000"
    d="&#10;  M 301.32 73.34&#10;  C 298.27 74.96 295.10 78.18 291.09 76.62&#10;  A 1.52 1.51 18.0 0 1 290.17 74.83&#10;  C 290.83 72.30 291.88 71.44 294.69 70.63&#10;  Q 297.91 69.69 300.65 67.52&#10;  A 1.15 1.07 -9.3 0 0 300.99 67.08&#10;  L 303.38 61.51&#10;  A 1.08 1.07 -43.1 0 0 303.41 60.70&#10;  L 302.04 56.94&#10;  A 0.71 0.71 0.0 0 1 302.48 56.02&#10;  L 306.85 54.57&#10;  A 0.77 0.73 -46.5 0 1 307.23 54.55&#10;  Q 312.59 55.50 318.00 54.43&#10;  C 322.91 53.47 325.27 54.72 328.58 58.02&#10;  A 0.78 0.78 0.0 0 1 328.68 59.00&#10;  L 323.87 66.25&#10;  A 0.90 0.80 -4.8 0 1 323.67 66.46&#10;  L 322.06 67.60&#10;  A 1.83 1.81 81.9 0 0 321.39 68.50&#10;  C 319.46 74.23 318.65 76.49 312.77 78.03&#10;  A 0.90 0.88 88.1 0 0 312.11 78.75&#10;  Q 310.31 89.42 309.87 101.20&#10;  C 309.68 106.08 309.01 115.53 305.63 117.94&#10;  A 0.80 0.80 0.0 0 1 304.51 117.76&#10;  Q 300.71 112.45 300.96 105.77&#10;  Q 301.11 101.63 300.71 87.95&#10;  A 3.59 3.55 51.8 0 1 300.83 86.89&#10;  Q 303.19 77.75 303.27 77.28&#10;  Q 303.58 75.37 302.33 73.58&#10;  A 0.78 0.78 0.0 0 0 301.32 73.34&#10;  Z&#10;  M 322.01 62.65&#10;  L 321.00 59.00&#10;  A 1.06 1.04 88.5 0 0 320.23 58.26&#10;  C 315.64 57.20 312.89 58.16 311.12 62.50&#10;  Q 309.70 66.00 313.17 69.56&#10;  A 1.33 1.32 44.7 0 0 315.07 69.56&#10;  C 317.44 67.09 319.54 64.54 320.87 64.11&#10;  Q 321.77 63.81 321.94 63.44&#10;  A 1.16 1.14 50.5 0 0 322.01 62.65&#10;  Z&#10;  M 321.57 65.11&#10;  Q 320.87 65.01 320.25 65.28&#10;  A 0.25 0.24 -49.1 0 0 320.28 65.74&#10;  Q 321.02 65.95 321.66 65.57&#10;  A 0.25 0.25 0.0 0 0 321.57 65.11&#10;  Z"
  />
  <path
    fill="#ffffff"
    d="&#10;  M 321.94 63.44&#10;  Q 321.77 63.81 320.87 64.11&#10;  C 319.54 64.54 317.44 67.09 315.07 69.56&#10;  A 1.33 1.32 44.7 0 1 313.17 69.56&#10;  Q 309.70 66.00 311.12 62.50&#10;  C 312.89 58.16 315.64 57.20 320.23 58.26&#10;  A 1.06 1.04 88.5 0 1 321.00 59.00&#10;  L 322.01 62.65&#10;  A 1.16 1.14 50.5 0 1 321.94 63.44&#10;  Z"
  />
  <path
    fill="#ffffff"
    d="&#10;  M 321.57 65.11&#10;  A 0.25 0.25 0.0 0 1 321.66 65.57&#10;  Q 321.02 65.95 320.28 65.74&#10;  A 0.25 0.24 -49.1 0 1 320.25 65.28&#10;  Q 320.87 65.01 321.57 65.11&#10;  Z"
  />
  <path
    fill="#000000"
    d="&#10;  M 145.83 95.68&#10;  A 0.95 0.95 0.0 0 1 144.18 95.51&#10;  L 143.23 93.29&#10;  A 1.24 1.23 -50.0 0 1 143.17 92.57&#10;  Q 144.64 85.80 143.85 78.00&#10;  A 1.15 1.15 0.0 0 0 143.22 77.10&#10;  Q 141.17 76.12 140.23 74.51&#10;  A 2.18 2.02 66.5 0 1 141.33 71.37&#10;  Q 146.26 69.99 150.53 72.51&#10;  A 2.08 1.86 62.2 0 0 151.18 72.75&#10;  L 154.16 73.27&#10;  A 1.24 1.24 0.0 0 1 155.00 73.85&#10;  Q 157.00 77.25 155.38 80.12&#10;  Q 149.84 89.97 145.83 95.68&#10;  Z"
  />
  <path
    fill="#ffffff"
    d="&#10;  M 58.21 77.86&#10;  A 0.88 0.87 4.9 0 1 59.10 78.91&#10;  Q 58.26 83.03 54.54 85.89&#10;  A 0.70 0.70 0.0 0 1 53.50 85.69&#10;  L 51.37 82.00&#10;  A 0.83 0.83 0.0 0 1 51.55 80.95&#10;  Q 55.07 77.97 58.21 77.86&#10;  Z"
  />
  <path
    fill="#ffffff"
    d="&#10;  M 666.53 101.66&#10;  Q 665.16 103.27 665.16 103.99&#10;  C 665.16 108.90 665.31 116.38 663.35 120.19&#10;  A 1.09 1.09 0.0 0 1 662.56 120.77&#10;  L 656.45 121.79&#10;  A 1.13 1.11 54.7 0 1 655.73 121.66&#10;  L 652.62 119.86&#10;  A 1.70 1.64 -24.3 0 0 652.06 119.66&#10;  Q 640.32 117.56 637.56 116.50&#10;  Q 634.29 115.24 630.25 114.81&#10;  C 628.48 114.62 626.46 113.09 626.00 111.28&#10;  C 624.21 104.21 639.81 102.99 644.26 102.60&#10;  A 5.39 5.36 -59.6 0 0 646.04 102.13&#10;  C 650.58 100.08 656.62 99.33 662.37 98.37&#10;  C 664.66 97.99 666.06 98.58 666.73 100.65&#10;  A 1.06 1.06 0.0 0 1 666.53 101.66&#10;  Z"
  />
</svg>
